<?xml version="1.0" standalone="no"?>
<!DOCTYPE svg PUBLIC "-//W3C//DTD SVG 1.1//EN" "http://www.w3.org/Graphics/SVG/1.1/DTD/svg11.dtd" >
<svg xmlns="http://www.w3.org/2000/svg">
<metadata></metadata>
<defs>
<font id="snowsymbolsiacs" horiz-adv-x="2091" >
<font-face units-per-em="2048" ascent="1638" descent="-410" />
<missing-glyph horiz-adv-x="1046" />
<glyph horiz-adv-x="0" />
<glyph horiz-adv-x="682" />
<glyph unicode=" "  horiz-adv-x="1046" />
<glyph unicode="&#x09;" horiz-adv-x="1046" />
<glyph unicode="&#xa0;" horiz-adv-x="1046" />
<glyph unicode="!" horiz-adv-x="2199" d="M74 524h147q0 -84 32 -156.5t86 -126t127 -85t157 -31.5t156.5 31.5t127 85t86 126t31.5 156.5h150q0 -84 31.5 -156.5t86 -126t127 -85t156.5 -31.5q82 0 155.5 31.5t128 85t86 126t31.5 156.5h150q0 -115 -43 -214t-119 -174t-176 -118t-213 -43q-152 0 -279 75 t-198 198q-72 -123 -197 -198t-278 -75q-115 0 -214.5 43t-174 118t-117.5 174.5t-43 213.5zM498 920l602 602l600 -602l-105 -105l-495 498l-498 -498z" />
<glyph unicode="%" d="M74 -25v150h903v453l-213 -211l-293 288l-293 -288l-104 104l397 391l293 -289l213 213v420l-209 -209l-106 105l385 389l389 -389l-105 -105l-207 207v-418l213 -213l287 287l393 -389l-102 -104l-291 284l-287 -284l-213 211v-453h893v-150h-1943z" />
<glyph unicode="&#x26;" horiz-adv-x="3231" d="M74 -119q84 295 240.5 519.5t362.5 377t446.5 230t492.5 77.5t493.5 -77.5t446.5 -230t361.5 -377t240.5 -519.5q-387 223 -777 346t-765 123t-764 -123t-778 -346zM379 217q283 135 593 208t644 73t644 -73t595 -208q-94 158 -225 291t-291 228t-343.5 148.5 t-379.5 53.5q-197 0 -379 -53.5t-342 -148.5t-292 -228t-224 -291z" />
<glyph unicode="(" horiz-adv-x="344" d="M0 530q0 109 19.5 200t53 172t80 152.5t97.5 143.5l119 -86q-45 -63 -85 -126.5t-71 -134.5t-48.5 -149.5t-17.5 -171.5q0 -92 17.5 -170.5t48.5 -149.5t71 -134.5t85 -126.5l-119 -86q-51 70 -97.5 142.5t-80 153.5t-53 172t-19.5 199z" />
<glyph unicode=")" horiz-adv-x="344" d="M-25 -51q45 63 85 126.5t71 134.5t48.5 149.5t17.5 170.5t-17.5 171t-48.5 150t-71 134.5t-85 126.5l119 86q51 -72 97.5 -143.5t80 -152.5t53 -172t19.5 -200t-19.5 -199.5t-53 -171.5t-80 -154t-97.5 -142z" />
<glyph unicode="0" horiz-adv-x="3366" d="M260 -408v1874h148v-1874h-148zM1159 -408v1874h148v-1874h-148zM2060 -408v1874h148v-1874h-148zM2959 -408v1874h148v-1874h-148z" />
<glyph unicode="2" d="M260 51l1466 1469l105 -105l-1466 -1466z" />
<glyph unicode="3" d="M260 51l682 682l-682 682l105 105l679 -684l682 684l105 -105l-682 -682l682 -682l-105 -102l-682 680l-679 -680z" />
<glyph unicode="4" d="M260 262l1258 1258l104 -105l-1257 -1257zM469 51l1257 1258l105 -105l-1258 -1255z" />
<glyph unicode="5" d="M260 262l471 471l-471 471l105 105l471 -471l104 104l-471 473l104 105l471 -473l474 473l104 -105l-473 -473l106 -106l474 473l104 -105l-473 -471l471 -471l-105 -104l-471 471l-106 -107l473 -471l-104 -102l-474 469l-469 -469l-104 102l471 471l-106 107l-471 -471 zM940 733l107 -106l104 104l-107 107z" />
<glyph unicode="7" horiz-adv-x="667" d="M260 -408v1874h148v-1874h-148z" />
<glyph unicode="8" horiz-adv-x="1566" d="M260 -408v1874h148v-1874h-148zM1159 -408v1874h148v-1874h-148z" />
<glyph unicode="9" horiz-adv-x="2467" d="M260 -408v1874h148v-1874h-148zM1159 -408v1874h148v-1874h-148zM2060 -408v1874h148v-1874h-148z" />
<glyph unicode="?" horiz-adv-x="2199" d="M74 524h147q0 -84 32 -156.5t86 -126t127 -85t157 -31.5t156.5 31.5t127 85t86 126t31.5 156.5h150q0 -84 31.5 -156.5t86 -126t127 -85t156.5 -31.5q82 0 155.5 31.5t128 85t86 126t31.5 156.5h150q0 -115 -43 -214t-119 -174t-176 -118t-213 -43q-152 0 -279 75 t-198 198q-72 -123 -197 -198t-278 -75q-115 0 -214.5 43t-174 118t-117.5 174.5t-43 213.5z" />
<glyph unicode="A" d="M514 0v1063h1063v-1063h-1063zM664 147h766v766h-766v-766z" />
<glyph unicode="B" d="M514 0v1063h1063v-1063h-1063zM664 252l661 661h-661v-661zM766 147h664v664z" />
<glyph unicode="C" d="M598 0v637q0 92 35 174t96.5 143.5t143 96t174.5 34.5q92 0 172.5 -34.5t142 -96t96.5 -143.5t35 -174v-637h-895zM745 147h601v342h-601v-342zM745 637h601q0 61 -24 116.5t-64.5 96.5t-95 64.5t-115.5 23.5t-117 -23.5t-96.5 -64.5t-64.5 -96.5t-24 -116.5z" />
<glyph unicode="D" d="M399 37l648 1122l645 -1122l-127 -74l-518 899l-521 -899z" />
<glyph unicode="E" d="M426 125v813h1239v-813h-147v666h-945v-666h-147z" />
<glyph unicode="F" d="M399 37l648 1122l645 -1122l-127 -74l-281 486l-280 -486l-127 74l323 559l-153 266l-521 -899z" />
<glyph unicode="G" d="M403 156l359 782h567l359 -782l-134 -64l-110 240h-797q-29 -59 -55.5 -119.5t-52.5 -120.5zM715 479h661l-141 312h-379z" />
<glyph unicode="H" d="M344 205l395 686q57 98 138 146t170 48q86 0 167.5 -48t139.5 -146l395 -686l-129 -76l-395 688v-2q-35 61 -83 92t-95 31q-49 0 -96.5 -30.5t-84.5 -92.5v2l-395 -688z" />
<glyph unicode="I" d="M399 1024l127 76l521 -901l518 901l127 -76l-645 -1122z" />
<glyph unicode="J" d="M467 907q125 86 271.5 132t308.5 46t308 -46t269 -130l-74 -129q-109 74 -235.5 116t-267.5 42t-269.5 -42t-236.5 -118zM618 645q33 20 66 36.5t66 33.5l297 -516l296 516q68 -33 132 -70l-428 -743z" />
<glyph unicode="K" d="M344 858l127 74l395 -686q37 -59 84 -90t97 -31q47 0 95 30.5t83 90.5l395 686l129 -74l-395 -688q-57 -98 -139 -146.5t-168 -48.5q-88 0 -169 48.5t-139 146.5z" />
<glyph unicode="L" d="M457 756q0 68 25.5 128t70.5 105t105.5 70.5t129.5 25.5q78 0 144.5 -32.5t111.5 -89.5q47 57 115 89.5t146 32.5q70 0 130 -25.5t105 -70.5t70.5 -105.5t25.5 -127.5q0 -63 -21.5 -118.5t-59 -98.5t-89 -73t-110.5 -38q22 -58 22 -121q0 -68 -26.5 -128t-71.5 -105 t-105.5 -72t-130.5 -27q-68 0 -128 27t-105 72t-70.5 105.5t-25.5 127.5q0 68 20 121q-59 8 -110.5 38t-88 73t-58 98t-21.5 119zM604 756q0 -39 14.5 -73t39 -58.5t58.5 -39t72 -14.5q78 0 130.5 53.5t52.5 131.5q0 76 -52.5 129t-130.5 53q-39 0 -72.5 -14.5t-58 -39 t-39 -58t-14.5 -70.5zM862 307q0 -76 53.5 -129t128.5 -53q78 0 132.5 53t54.5 129q0 78 -54.5 131.5t-132.5 53.5q-76 0 -129 -53.5t-53 -131.5zM1118 748q4 -74 57.5 -125.5t129.5 -51.5q78 0 131 53.5t53 131.5q0 76 -53.5 129t-130.5 53q-76 0 -129.5 -51t-57.5 -125v-6 v-8z" />
<glyph unicode="M" d="M457 756q0 68 26.5 128t71.5 105t105 70.5t128 25.5q78 0 144.5 -32.5t114.5 -89.5q47 57 113.5 89.5t144.5 32.5q70 0 130 -25.5t105 -70.5t70.5 -105.5t25.5 -127.5q0 -61 -21.5 -117.5t-58 -99.5t-88 -73t-110.5 -40q20 -53 20 -119q0 -68 -26.5 -128t-71.5 -105 t-105.5 -72t-127.5 -27q-70 0 -130.5 27t-105.5 72t-70.5 105.5t-25.5 127.5q0 31 5 60.5t15 58.5q-59 10 -109.5 40t-88 73t-59 99t-21.5 118zM604 756q0 -78 53.5 -131.5t130.5 -53.5q45 0 86 23l74 -127q-41 -29 -63.5 -71t-22.5 -89q0 -76 53.5 -129t131.5 -53t131 53 t53 129q0 47 -22.5 89t-63.5 71l69 127q49 -23 91 -23q78 0 131 53.5t53 131.5q0 76 -53.5 129t-130.5 53q-78 0 -131.5 -53.5t-53.5 -128.5h-147q0 76 -54.5 129t-130.5 53q-78 0 -131 -53.5t-53 -128.5z" />
<glyph unicode="N" d="M293 981q0 61 23.5 116.5t64.5 95.5t96 63.5t117 23.5q63 0 117.5 -23.5t95.5 -63.5t64.5 -95.5t23.5 -116.5q0 -63 -23.5 -117.5t-64.5 -95.5t-95.5 -64.5t-117.5 -23.5q-61 0 -116.5 23.5t-96.5 64.5t-64.5 95.5t-23.5 117.5zM440 981q0 -66 45 -110t109 -44 q66 0 108.5 44t42.5 110q0 63 -43 107.5t-108 44.5q-63 0 -108.5 -44.5t-45.5 -107.5zM741 197q0 61 23.5 116.5t65.5 96.5t97.5 64.5t116.5 23.5t115.5 -23.5t96.5 -64.5t66 -96.5t24 -116.5q0 -63 -24 -117.5t-66 -95.5t-96 -64.5t-116 -23.5q-61 0 -116.5 23.5 t-97.5 64.5t-65.5 95t-23.5 118zM891 197q0 -66 45 -110t108 -44t107.5 44t44.5 110q0 63 -44 107t-108 44q-63 0 -108 -44t-45 -107zM1196 981q0 61 23.5 116.5t64.5 95.5t95.5 63.5t117.5 23.5q61 0 116.5 -23.5t96.5 -63.5t64.5 -95.5t23.5 -116.5q0 -63 -23.5 -117.5 t-64.5 -95.5t-96 -64.5t-117 -23.5q-63 0 -117.5 23.5t-95.5 64.5t-64.5 95.5t-23.5 117.5zM1346 981q0 -66 43 -110t108 -44q63 0 108.5 44t45.5 110q0 63 -45 107.5t-109 44.5q-66 0 -108.5 -44.5t-42.5 -107.5z" />
<glyph unicode="O" horiz-adv-x="1615" d="M0 530q0 217 82 407.5t224.5 333t332.5 224.5t408 82q119 0 233.5 -27.5t218 -79t193.5 -121t161 -155.5q72 86 162 155.5t193.5 121t217 79t234.5 27.5q217 0 407.5 -82t333 -224.5t224.5 -332.5t82 -408q0 -217 -82 -407.5t-224.5 -332.5t-333 -224t-407.5 -82 q-121 0 -234.5 27.5t-217 78t-193.5 121t-162 156.5q-72 -86 -161.5 -156.5t-193 -121t-218.5 -78t-233 -27.5q-217 0 -407.5 82t-333 224t-224.5 332.5t-82 407.5zM147 530q0 -186 71 -350t192.5 -285.5t285.5 -192.5t351 -71q117 0 229.5 35t215.5 99.5t195.5 155.5 t165.5 202q74 -111 165 -202t195.5 -155.5t217.5 -99.5t229 -35q186 0 349 71t285 192.5t192.5 285.5t70.5 350t-70.5 349t-192.5 285t-285 192.5t-349 70.5q-117 0 -229.5 -34.5t-217 -98t-195.5 -154.5t-165 -202q-74 111 -166 202t-195 154.5t-216 98t-229 34.5 q-186 0 -350.5 -70.5t-286 -192.5t-192.5 -284.5t-71 -349.5zM492 530q0 115 43 216.5t118.5 176t177 118.5t216.5 44t216 -44t175.5 -118.5t119 -176t44.5 -216.5t-44.5 -216t-119 -176t-176 -119t-215.5 -44q-115 0 -216.5 44t-177 119t-118.5 176t-43 216zM639 530 q0 -84 31.5 -157.5t87 -129t130.5 -87t159 -31.5t157.5 31.5t129 87t87 129t31.5 157.5t-31.5 159t-87 130t-129.5 87t-157 32q-84 0 -159 -32t-130.5 -87t-87 -130t-31.5 -159z" />
<glyph unicode="P" d="M514 186v688h1063v-688h-1063z" />
<glyph unicode="Q" d="M700 0v1063h691v-1063h-691z" />
<glyph unicode="R" d="M514 186v688h1063v-688h-1063zM664 494h766v233h-766v-233z" />
<glyph unicode="S" d="M631 287v147h829v-147h-829zM631 686v150h829v-150h-829z" />
<glyph unicode="T" d="M631 487v148h829v-148h-829z" />
<glyph unicode="U" horiz-adv-x="8095" d="M0 487v148h8096v-148h-8096z" />
<glyph unicode="V" horiz-adv-x="8095" d="M-74 555h148q0 -90 33.5 -168t92 -136t137.5 -92t169 -34q88 0 167 34t138 92t93 136t34 168q0 121 46 226.5t125 184t184.5 125t226.5 46.5q119 0 224 -46.5t184 -125t124 -184t45 -226.5q0 -90 34 -168t93.5 -136t137 -92t167.5 -34t169 34t137.5 92t92 136t33.5 168 q0 121 46.5 226.5t125 184t184 125t226.5 46.5q119 0 225.5 -46.5t184 -125t124 -184t46.5 -226.5q0 -90 33.5 -168t92 -136t136.5 -92t168 -34t169 34t138 92t93 136t34 168q0 121 46 226.5t124 184t183.5 125t225.5 46.5q121 0 226.5 -46.5t184.5 -125t124 -184t45 -226.5 q0 -90 34 -168t92 -136t136 -92t168 -34t169 34t138.5 92t93 136t33.5 168q0 121 46 226.5t125 184t184.5 125t226.5 46.5q119 0 224.5 -46.5t184 -125t123.5 -184t45 -226.5h-147q0 90 -34 169t-92 137.5t-137 92t-167 33.5q-90 0 -169 -33.5t-138.5 -92t-93 -137.5 t-33.5 -169q0 -121 -46 -226.5t-125 -183t-184.5 -124t-226.5 -46.5t-225.5 46.5t-183 124t-123.5 183t-45 226.5q0 90 -34 169t-93.5 137.5t-138 92t-167.5 33.5q-90 0 -167.5 -33.5t-137 -92t-93.5 -137.5t-34 -169q0 -121 -46 -226.5t-125 -183t-184 -124t-226 -46.5 t-226.5 46.5t-183.5 124t-124 183t-46 226.5q0 90 -33.5 169t-92 137.5t-137.5 92t-167 33.5q-90 0 -169 -33.5t-137.5 -92t-92 -137.5t-33.5 -169q0 -121 -46 -226.5t-125 -183t-184.5 -124t-226.5 -46.5t-226 46.5t-183 124t-124 183t-46 226.5q0 90 -34 169t-92.5 137.5 t-137 92t-166.5 33.5q-90 0 -169 -33.5t-138.5 -92t-93.5 -137.5t-34 -169q0 -121 -46 -226.5t-123.5 -183t-184 -124t-225.5 -46.5q-121 0 -226.5 46.5t-184.5 124t-124 183t-45 226.5z" />
<glyph unicode="W" horiz-adv-x="8095" d="M0 -25v150q193 0 364 73.5t299 200.5t201.5 298t73.5 366h147q0 -195 74 -366t201 -298t298 -200.5t365 -73.5q195 0 366 73.5t298 200.5t200.5 298t73.5 366h150q0 -195 73.5 -366t200.5 -298t297 -200.5t365 -73.5t365.5 73.5t298.5 200.5t202 298t74 366h147 q0 -195 74 -366t201 -298t298 -200.5t365 -73.5q193 0 364 73.5t299 200.5t201.5 298t73.5 366h148q0 -195 73.5 -366t201.5 -298t298 -200.5t365 -73.5v-150q-172 0 -330 51.5t-290 143.5t-232.5 219t-159.5 279q-59 -152 -159.5 -279t-232.5 -219t-290 -143.5t-330 -51.5 t-329.5 51.5t-289.5 143.5t-232.5 219t-159.5 279q-59 -152 -161 -279t-234 -219t-289.5 -143.5t-329.5 -51.5t-329 51.5t-289 142.5t-233 218t-161 279q-59 -152 -159.5 -279t-232.5 -218t-290 -142.5t-330 -51.5t-329.5 51.5t-289.5 143.5t-232.5 219t-159.5 279 q-59 -152 -159.5 -279t-233 -219t-290 -143.5t-329.5 -51.5z" />
<glyph unicode="X" horiz-adv-x="8095" d="M0 938v147q172 0 329.5 -51t290 -143t232.5 -219t160 -279q59 152 159.5 279t232.5 219t289.5 143t329.5 51t330 -51t290 -142t232.5 -218t159.5 -279q59 152 160.5 279t233.5 218t290 142t330 51t329.5 -51t290 -143t232.5 -219t160 -279q59 152 159.5 279t232.5 219 t289.5 143t329.5 51t330 -51t290 -142t232.5 -218t159.5 -279q59 152 160.5 279t233.5 218t289 142t329 51v-147q-195 0 -365 -73.5t-297 -200.5t-200.5 -298t-73.5 -366h-150q0 195 -73.5 366t-200.5 298t-298 200.5t-366 73.5t-365.5 -73.5t-297.5 -200.5t-201 -298 t-74 -366h-147q0 195 -74 366t-202 298t-299 200.5t-363 73.5q-195 0 -366 -73.5t-298 -200.5t-200.5 -298t-73.5 -366h-150q0 195 -73.5 366t-200.5 298t-298 200.5t-366 73.5t-364.5 -73.5t-297.5 -200.5t-202 -298t-74 -366h-147q0 195 -73.5 366t-201.5 298t-299 200.5 t-364 73.5z" />
<glyph unicode="Y" horiz-adv-x="8095" d="M-51 582l561 561l1010 -1014l1011 1012l1012 -1012l1012 1012l1011 -1012l1012 1012l1012 -1012l455 453l102 -103l-557 -555l-1012 1012l-1012 -1012l-1011 1012l-1012 -1012l-1012 1012l-1015 -1016l-1010 1014l-455 -455z" />
<glyph unicode="a" d="M514 457v147h459v459h147v-459h457v-147h-457v-457h-147v457h-459z" />
<glyph unicode="b" d="M492 530q0 115 43 216.5t118.5 176t177 118.5t216.5 44t216 -44t175.5 -118.5t119 -176t44.5 -216.5t-44.5 -216t-119 -176t-176 -119t-215.5 -44q-115 0 -216.5 44t-177 119t-118.5 176t-43 216zM639 530q0 -84 31.5 -157.5t87 -129t130.5 -87t159 -31.5t157.5 31.5 t129 87t87 129t31.5 157.5t-31.5 159t-87 130t-129.5 87t-157 32q-84 0 -159 -32t-130.5 -87t-87 -130t-31.5 -159zM752 530q0 59 23.5 112.5t63.5 93.5t93 62.5t115 22.5q59 0 112 -22.5t93 -62.5t62.5 -93.5t22.5 -112.5q0 -61 -22.5 -114.5t-62.5 -93t-93 -62t-112 -22.5 q-61 0 -114.5 22.5t-93.5 62t-63.5 93t-23.5 114.5zM899 530q0 -59 44 -102t104 -43q59 0 101 43t42 102t-42 101.5t-101 42.5t-103.5 -42t-44.5 -102z" />
<glyph unicode="c" d="M442 53l1106 1061l103 -106l-1106 -1061z" />
<glyph unicode="d" d="M598 530q0 92 35 174t96.5 143.5t143 96.5t174.5 35q92 0 172.5 -35t142 -96.5t96.5 -143t35 -174.5q0 -92 -35 -173t-96.5 -142t-142 -96t-172.5 -35t-174 35t-143.5 96t-96.5 142t-35 173z" />
<glyph unicode="e" d="M514 0v1063h1063v-1063h-1063zM664 147h766v766h-766v-766z" />
<glyph unicode="f" d="M399 37l648 1122l645 -1122l-127 -74l-518 899l-521 -899z" />
<glyph unicode="g" d="M399 1024l127 76l521 -901l518 901l127 -76l-645 -1122z" />
<glyph unicode="h" d="M492 530q0 115 43 216.5t118.5 176t177 118.5t216.5 44t216 -44t175.5 -118.5t119 -176t44.5 -216.5t-44.5 -216t-119 -176t-176 -119t-215.5 -44q-115 0 -216.5 44t-177 119t-118.5 176t-43 216zM639 530q0 -84 31.5 -157.5t87 -129t130.5 -87t159 -31.5t157.5 31.5 t129 87t87 129t31.5 157.5t-31.5 159t-87 130t-129.5 87t-157 32q-84 0 -159 -32t-130.5 -87t-87 -130t-31.5 -159z" />
<glyph unicode="i" d="M514 186v688h1063v-688h-1063z" />
<glyph unicode="j" d="M514 186v688h1063v-688h-1063zM664 334h766v393h-766v-393z" />
<glyph unicode="k" d="M250 571l389 387l102 -106l-206 -207h1021l-206 207l102 106l389 -387l-389 -389l-102 105l211 211h-1031l211 -211l-102 -105z" />
<glyph unicode="l" d="M432 530l305 533h617l305 -533l-305 -530h-617zM602 530q57 -102 107.5 -190t111.5 -193h449q57 100 107 189.5t112 193.5q-59 100 -108.5 190.5t-110.5 194.5h-449q-29 -51 -55.5 -98t-53 -93t-53 -94t-57.5 -100zM903 530q0 59 41 102.5t100 43.5t101.5 -43.5 t42.5 -102.5t-42 -99t-102 -40q-59 0 -100 40t-41 99z" />
<glyph unicode="m" d="M549 330l348 200l-348 201l74 129l350 -203v406h147v-404l348 201l74 -129l-348 -201l348 -200l-74 -129l-348 200v-401h-147v401l-350 -200z" />
<glyph unicode="n" d="M332 29q74 170 153 329q33 68 71 140.5t77 143.5t79 135.5t79 115.5q86 113 199.5 170t234.5 57q119 0 230.5 -57t191.5 -174l114 -172l-125 -80q-18 31 -39 59q-16 25 -36.5 53.5t-36.5 55.5q-55 86 -134 127t-165 41t-170 -44t-148 -124q-55 -76 -114 -180h417v-148 h-497q-51 -94 -94.5 -184t-77.5 -162q-39 -84 -74 -160z" />
<glyph unicode="o" d="M377 0l541 938h-404v147h404l-199 345l127 73l201 -346v2l198 344l127 -73l-198 -345h403v-147h-403l540 -938h-1337zM633 147h825l-411 715z" />
<glyph unicode="p" d="M377 0l670 1159l667 -1159h-1337z" />
<glyph unicode="q" d="M377 0l670 1159l667 -1159h-1337zM633 147h825l-411 715zM905 383q0 59 41 102t101 43q59 0 101 -43t42 -102t-42 -99t-101 -40t-100.5 40t-41.5 99z" />
<glyph unicode="r" d="M598 1034l137 56l121 -306h379l121 306l137 -56l-446 -1132zM913 637l134 -332l131 332h-265z" />
<glyph unicode="s" d="M492 530q0 115 43 216.5t118.5 176t177 118.5t216.5 44t216 -44t175.5 -118.5t119 -176t44.5 -216.5t-44.5 -216t-119 -176t-176 -119t-215.5 -44q-115 0 -216.5 44t-177 119t-118.5 176t-43 216zM639 530q0 -84 31.5 -157.5t87 -129t130.5 -87t159 -31.5t157.5 31.5 t129 87t87 129t31.5 157.5t-31.5 159t-87 130t-129.5 87t-157 32q-84 0 -159 -32t-130.5 -87t-87 -130t-31.5 -159zM752 530q0 59 23.5 112.5t63.5 93.5t93 62.5t115 22.5q59 0 112 -22.5t93 -62.5t62.5 -93.5t22.5 -112.5q0 -61 -22.5 -114.5t-62.5 -93t-93 -62t-112 -22.5 q-61 0 -114.5 22.5t-93.5 62t-63.5 93t-23.5 114.5zM899 530q0 -59 44 -102t104 -43q59 0 101 43t42 102t-42 101.5t-101 42.5t-103.5 -42t-44.5 -102z" />
<glyph unicode="t" d="M391 106l1106 1061l102 -106l-153 -148q72 -76 114 -174t42 -209q0 -115 -44.5 -216t-119 -176t-176 -119t-215.5 -44q-117 0 -220.5 46.5t-181.5 123.5l-151 -145zM754 248q55 -59 131 -91t162 -32q84 0 157.5 31.5t129 87t87 129t31.5 157.5q0 82 -29.5 154t-83.5 127 l-82 -80q37 -41 58.5 -91t21.5 -110q0 -61 -22.5 -114.5t-62.5 -93t-93 -62t-112 -22.5q-63 0 -116.5 23.5t-94.5 64.5zM942 428q43 -43 105 -43q59 0 101 43t42 102q0 29 -11.5 53.5t-29.5 45.5z" />
<glyph unicode="u" d="M442 53l1106 1061l103 -106l-1106 -1061z" />
<glyph unicode="v" d="M442 53q59 55 127 123q59 57 136 130t163 157l103 -107q-86 -84 -163 -156.5t-136 -129.5q-68 -68 -127 -123zM1120 705q59 55 127 122q59 57 137 130t164 157l103 -106q-86 -84 -164 -157t-137 -130q-68 -68 -127 -123z" />
<glyph unicode="w" d="M854 530q0 39 15.5 74t41 60.5t60.5 41t73 15.5q39 0 74 -15.5t61.5 -41t41 -60.5t14.5 -74t-14.5 -73.5t-41 -60t-61.5 -41t-74 -15.5t-73.5 15.5t-60 41t-41 60.5t-15.5 73z" />
<glyph unicode="x" d="M598 530q0 92 35 174t96.5 143.5t143 96.5t174.5 35q92 0 172.5 -35t142 -96.5t96.5 -143t35 -174.5q0 -92 -35 -173t-96.5 -142t-142 -96t-172.5 -35t-174 35t-143.5 96t-96.5 142t-35 173z" />
<glyph unicode="y" d="M442 53l234 226q-37 53 -57.5 116t-20.5 135q0 92 35 174t96.5 143.5t143 96.5t174.5 35q76 0 143 -23.5t123 -66.5l235 225l103 -106l-236 -226q37 -53 57.5 -117.5t20.5 -134.5q0 -92 -35 -173t-96.5 -142t-142 -96t-172.5 -35q-76 0 -143.5 23.5t-125.5 64.5 l-233 -225z" />
<glyph unicode="z" d="M598 424v639h895v-639q0 -92 -35 -174t-96.5 -143.5t-143 -96.5t-174.5 -35q-92 0 -172.5 35t-142 96.5t-96.5 143.5t-35 174zM745 438q2 59 27 111.5t65 91.5t93 61.5t114 22.5t117 -23.5t96.5 -63.5t64.5 -95.5t24 -116.5v487h-601v-475z" />
<glyph unicode="&#x2000;" horiz-adv-x="788" />
<glyph unicode="&#x2001;" horiz-adv-x="1577" />
<glyph unicode="&#x2002;" horiz-adv-x="788" />
<glyph unicode="&#x2003;" horiz-adv-x="1577" />
<glyph unicode="&#x2004;" horiz-adv-x="525" />
<glyph unicode="&#x2005;" horiz-adv-x="394" />
<glyph unicode="&#x2006;" horiz-adv-x="262" />
<glyph unicode="&#x2007;" horiz-adv-x="262" />
<glyph unicode="&#x2008;" horiz-adv-x="197" />
<glyph unicode="&#x2009;" horiz-adv-x="315" />
<glyph unicode="&#x200a;" horiz-adv-x="87" />
<glyph unicode="&#x202f;" horiz-adv-x="315" />
<glyph unicode="&#x205f;" horiz-adv-x="394" />
<glyph unicode="&#x25fc;" horiz-adv-x="983" d="M0 0v983h983v-983h-983z" />
</font>
</defs>
</svg>
