<svg xmlns="http://www.w3.org/2000/svg" width="214.3" height="150" version="1.1">
    <g fill="none" fill-rule="evenodd" stroke="none" stroke-width="1">
        <rect width="100" height="100" x="57.15" y="25" fill="#19abff" ry="50" style="fill:#839194;fill-opacity:1"/>
        <g transform="translate(68.162 47.499)">
            <path fill="#fff" d="m33.916 0 41.65 34.093-17.985 17.993a2.677 2.677 0 0 1-3.787 0L38.65 36.934a2.677 2.677 0 0 0-3.787 0L19.716 52.086a2.677 2.677 0 0 1-3.786 0L.784 36.934a2.68 2.68 0 0 1 0-3.788z"/>
            <path fill="#19abff" stroke="#fff" stroke-width="2.68" d="M36.655.084a3 3 0 0 1 1.944.444l17.732 11.14c.212-.38.474-.711.772-.996.829-.795 1.954-1.224 3.085-1.267 1.19-.045 2.364.34 3.202 1.086q.348.31.62.7a6.2 6.2 0 0 1 2.686-.952 5.64 5.64 0 0 1 4.538 1.594c1.168 1.148 1.818 2.78 1.599 4.508a5.8 5.8 0 0 1-.952 2.491c2.092.834 3.485 2.128 4.338 3.597 1.363 2.351 1.349 5.23.328 7.701-1.061 2.571-3.192 4.645-5.81 5.254-2.193.51-4.781.046-7.44-2.193L34.857 4.74a2.67 2.67 0 0 1-.784-1.894c0-.686.262-1.372.785-1.895a3 3 0 0 1 1.797-.866z" style="fill:#839194;fill-opacity:1"/>
            <path fill="#fff" fill-rule="nonzero" d="M66.545 23.148a.67.67 0 0 1 .638-1.178 3.63 3.63 0 0 1-1.207 6.848.67.67 0 0 1-.196-1.326c2.324-.345 2.831-3.225.765-4.344"/>
        </g>
    </g>
</svg>
