<?xml version="1.0" encoding="UTF-8" standalone="no"?>
<svg
   width="214.3"
   height="150"
   viewBox="0 0 214.3 150"
   version="1.1"
   id="svg1"
   xmlns="http://www.w3.org/2000/svg"
   xmlns:svg="http://www.w3.org/2000/svg"
   xmlns:rdf="http://www.w3.org/1999/02/22-rdf-syntax-ns#"
   xmlns:cc="http://creativecommons.org/ns#"
   xmlns:dc="http://purl.org/dc/elements/1.1/">
  <defs
     id="defs1" />
  <title
     id="title1">Favicon / Admin GUI</title>
  <g
     id="Favicon-/-Admin-GUI"
     stroke="none"
     stroke-width="1"
     fill="none"
     fill-rule="evenodd">
    <rect
       fill="#19abff"
       x="57.150002"
       y="25"
       width="100"
       height="100"
       id="rect1"
       ry="50"
       style="fill:#839194;fill-opacity:1" />
    <g
       id="Logo-A-Copy"
       transform="translate(68.1615,47.499)">
      <path
         d="M 33.915572,0 75.566443,34.092648 57.580839,52.085991 c -1.045597,1.046047 -2.740845,1.046047 -3.786442,0 L 38.648626,36.933702 c -1.045598,-1.046047 -2.740846,-1.046047 -3.786443,0 L 19.716412,52.085991 c -1.045598,1.046047 -2.740846,1.046047 -3.786443,0 L 0.78419797,36.933702 c -1.04559729,-1.046047 -1.04559729,-2.742024 0,-3.788072 z"
         id="A"
         fill="#ffffff" />
      <path
         d="m 36.654711,0.08420865 c 0.661802,-0.07467479 1.348218,0.06890613 1.944743,0.44370147 L 56.330757,11.668445 c 0.212099,-0.380288 0.474677,-0.711921 0.771803,-0.996695 0.829282,-0.7948066 1.954167,-1.2240896 3.085347,-1.2670228 1.189671,-0.045153 2.363725,0.339404 3.202226,1.0864278 0.231112,0.205898 0.439883,0.438975 0.619053,0.699426 0.898316,-0.567474 1.812965,-0.862085 2.686403,-0.952048 1.762111,-0.181493 3.396534,0.471362 4.538868,1.594262 1.167575,1.14771 1.817337,2.779644 1.598553,4.508367 -0.103086,0.814536 -0.399209,1.662818 -0.952165,2.491046 2.091739,0.833616 3.485647,2.127925 4.337791,3.597234 1.36349,2.350996 1.348892,5.230444 0.328856,7.701001 -1.061476,2.570927 -3.19236,4.644112 -5.810919,5.253216 -2.1923,0.509951 -4.780893,0.04633 -7.439223,-2.19235 L 34.857739,4.7394605 C 34.334755,4.2162516 34.073214,3.5305151 34.073214,2.8447533 c 0,-0.6857617 0.261541,-1.3714982 0.784525,-1.89470717 0.498057,-0.49827171 1.135221,-0.79116839 1.796972,-0.86583748 z"
         id="Lan"
         stroke="#ffffff"
         stroke-width="2.68"
         fill="#19abff"
         style="fill:#839194;fill-opacity:1" />
      <path
         d="m 66.54517,23.148104 c -0.325357,-0.176253 -0.446231,-0.582888 -0.269978,-0.908246 0.176252,-0.325358 0.582888,-0.446232 0.908246,-0.269979 3.19833,1.732598 2.390876,6.313872 -1.207076,6.847643 -0.366025,0.0543 -0.706766,-0.1984 -0.761068,-0.564425 -0.0543,-0.366025 0.198401,-0.706766 0.564425,-0.761068 2.324181,-0.344802 2.831744,-3.224574 0.765451,-4.343925 z"
         id="Path-4"
         fill="#ffffff"
         fill-rule="nonzero" />
    </g>
  </g>
  <metadata
     id="metadata1">
    <rdf:RDF>
      <cc:Work
         rdf:about="">
        <dc:title>Favicon / Admin GUI</dc:title>
      </cc:Work>
    </rdf:RDF>
  </metadata>
</svg>
