<svg xmlns="http://www.w3.org/2000/svg" xmlns:xlink="http://www.w3.org/1999/xlink" xml:space="preserve" id="svg1" width="1966.639" height="1080" version="1.1" viewBox="0 0 520.34 285.75"><defs id="defs1"><marker id="marker31" markerHeight="1" markerWidth="1.2" orient="auto-start-reverse" preserveAspectRatio="none" refX="0" refY="0" style="overflow:visible" viewBox="0 0 1 1"><path id="path31" d="M-.211-4.106 6.21-.894a1 1 90 0 1 0 1.788L-.21 4.106A1.236 1.236 31.717 0 1-2 3v-6A1.236 1.236 148.283 0 1-.211-4.106z" style="fill:context-stroke;fill-rule:evenodd;stroke:none" transform="scale(.7)"/></marker><marker id="RoundedArrow" markerHeight=".6" markerWidth=".8" orient="auto-start-reverse" preserveAspectRatio="none" refX="0" refY="0" style="overflow:visible" viewBox="0 0 1 1"><path id="path29" d="M-.211-4.106 6.21-.894a1 1 90 0 1 0 1.788L-.21 4.106A1.236 1.236 31.717 0 1-2 3v-6A1.236 1.236 148.283 0 1-.211-4.106z" style="fill:context-stroke;fill-rule:evenodd;stroke:none" transform="scale(.7)"/></marker></defs><g id="layer2" style="display:inline"><g id="layer3"><path id="rect1" d="M11.45 1.45h498.6v224.1H11.45z" style="opacity:1;fill:#f4f8fc;fill-opacity:1;stroke:#bfbfbf;stroke-width:.900001;stroke-linecap:round;stroke-linejoin:round;stroke-dasharray:none;stroke-opacity:1;paint-order:markers fill stroke"/><path id="rect2" d="M11.45 227.195h498.6v57.1H11.45z" style="opacity:1;fill:#f2f2f2;fill-opacity:1;stroke:#bfbfbf;stroke-width:.900002;stroke-linecap:round;stroke-linejoin:round;stroke-dasharray:none;stroke-opacity:1;paint-order:markers fill stroke"/><text xml:space="preserve" id="text4" x="-264.762" y="9.364" style="font-size:5.39765px;line-height:1.25;font-family:sans-serif;stroke-width:.264583" transform="rotate(-90)"><tspan id="tspan4" x="-264.762" y="9.364" style="font-style:normal;font-variant:normal;font-weight:400;font-stretch:normal;font-size:5.39765px;font-family:Arial;-inkscape-font-specification:Arial;fill:#7f7f7f;fill-opacity:1;stroke-width:.264583">Resultat</tspan></text><text xml:space="preserve" id="text5" x="-133.566" y="9.364" style="font-size:5.398px;line-height:1.25;font-family:sans-serif;stroke-width:.264583" transform="rotate(-90)"><tspan id="tspan5" x="-133.566" y="9.364" style="font-style:normal;font-variant:normal;font-weight:400;font-stretch:normal;font-size:5.398px;font-family:Arial;-inkscape-font-specification:Arial;fill:#7f7f7f;fill-opacity:1;stroke-width:.264583">Entscheidungsbaum</tspan></text></g><g id="layer4"><g id="layer5" style="display:inline"><g id="layer9" style="display:inline"><ellipse id="path8" cx="237.75" cy="30.5" rx="28.8" ry="11.05" style="opacity:1;fill:#fff;fill-opacity:1;stroke:#4472c4;stroke-width:.899999;stroke-linecap:round;stroke-linejoin:round;stroke-dasharray:none;stroke-opacity:1;paint-order:markers fill stroke"/><ellipse id="ellipse8" cx="237.75" cy="80.75" rx="38.55" ry="10.3" style="opacity:1;fill:#fff;fill-opacity:1;stroke:#4472c4;stroke-width:.899999;stroke-linecap:round;stroke-linejoin:round;stroke-dasharray:none;stroke-opacity:1;paint-order:markers fill stroke"/><ellipse id="ellipse9" cx="398.25" cy="116.75" rx="28.8" ry="10.3" style="display:inline;opacity:1;fill:#fff;fill-opacity:1;stroke:#4472c4;stroke-width:.899999;stroke-linecap:round;stroke-linejoin:round;stroke-dasharray:none;stroke-opacity:1;paint-order:markers fill stroke"/><ellipse id="ellipse11" cx="137.75" cy="141.75" rx="28.8" ry="10.3" style="display:inline;opacity:1;fill:#fff;fill-opacity:1;stroke:#4472c4;stroke-width:.899999;stroke-linecap:round;stroke-linejoin:round;stroke-dasharray:none;stroke-opacity:1;paint-order:markers fill stroke"/><ellipse id="ellipse26" cx="297.25" cy="141.75" rx="28.8" ry="10.3" style="display:inline;opacity:1;fill:#fff;fill-opacity:1;stroke:#4472c4;stroke-width:.899999;stroke-linecap:round;stroke-linejoin:round;stroke-dasharray:none;stroke-opacity:1;paint-order:markers fill stroke"/><ellipse id="ellipse12" cx="96" cy="180" rx="38.55" ry="13.55" style="opacity:1;fill:#fff;fill-opacity:1;stroke:#4472c4;stroke-width:.899999;stroke-linecap:round;stroke-linejoin:round;stroke-dasharray:none;stroke-opacity:1;paint-order:markers fill stroke"/><ellipse id="ellipse13" cx="177.5" cy="180" rx="38.55" ry="13.55" style="opacity:1;fill:#fff;fill-opacity:1;stroke:#4472c4;stroke-width:.899999;stroke-linecap:round;stroke-linejoin:round;stroke-dasharray:none;stroke-opacity:1;paint-order:markers fill stroke"/></g><g id="layer8-2" style="display:inline"><text xml:space="preserve" id="text13" x="237.602" y="32.083" style="font-size:4.49792px;line-height:1.25;font-family:sans-serif;display:inline;stroke-width:.264583"><tspan id="tspan13" x="237.602" y="32.083" style="font-style:normal;font-variant:normal;font-weight:400;font-stretch:normal;font-size:4.49792px;line-height:1.25;font-family:Arial;-inkscape-font-specification:Arial;text-align:center;baseline-shift:baseline;text-anchor:middle;stroke-width:.264583">Lawinenart</tspan></text><text xml:space="preserve" id="text16" x="237.665" y="79.549" style="font-size:4.49792px;line-height:1.25;font-family:sans-serif;display:inline;stroke-width:.264583"><tspan id="tspan2" x="237.665" y="79.549" style="font-style:normal;font-variant:normal;font-weight:400;font-stretch:normal;font-size:4.49792px;line-height:1.25;font-family:Arial;-inkscape-font-specification:Arial;text-align:center;baseline-shift:baseline;text-anchor:middle;stroke-width:.264583">Kornform</tspan><tspan id="tspan18" x="237.665" y="85.171" style="font-style:normal;font-variant:normal;font-weight:400;font-stretch:normal;font-size:4.49792px;line-height:1.25;font-family:Arial;-inkscape-font-specification:Arial;text-align:center;baseline-shift:baseline;text-anchor:middle;stroke-width:.264583">Schneebrett</tspan></text><text xml:space="preserve" id="text19" x="137.665" y="140.549" style="font-size:4.49794px;line-height:1.25;font-family:sans-serif;display:inline;stroke-width:.264583"><tspan id="tspan3" x="137.665" y="140.549" style="font-style:normal;font-variant:normal;font-weight:400;font-stretch:normal;font-size:4.49794px;line-height:1.25;font-family:Arial;-inkscape-font-specification:Arial;text-align:center;baseline-shift:baseline;text-anchor:middle;stroke-width:.264583">Kornform</tspan><tspan id="tspan19" x="137.665" y="146.171" style="font-style:normal;font-variant:normal;font-weight:400;font-stretch:normal;font-size:4.49794px;line-height:1.25;font-family:Arial;-inkscape-font-specification:Arial;text-align:center;baseline-shift:baseline;text-anchor:middle;stroke-width:.264583">Schwachschicht</tspan></text><text xml:space="preserve" id="text28" x="297.165" y="140.549" style="font-size:4.49794px;line-height:1.25;font-family:sans-serif;display:inline;stroke-width:.264583"><tspan id="tspan6" x="297.165" y="140.549" style="font-style:normal;font-variant:normal;font-weight:400;font-stretch:normal;font-size:4.49794px;line-height:1.25;font-family:Arial;-inkscape-font-specification:Arial;text-align:center;baseline-shift:baseline;text-anchor:middle;stroke-width:.264583">Kornform</tspan><tspan id="tspan24" x="297.165" y="146.171" style="font-style:normal;font-variant:normal;font-weight:400;font-stretch:normal;font-size:4.49794px;line-height:1.25;font-family:Arial;-inkscape-font-specification:Arial;text-align:center;baseline-shift:baseline;text-anchor:middle;stroke-width:.264583">Schwachschicht</tspan></text><text xml:space="preserve" id="text14" x="398.179" y="115.55" style="font-size:4.49792px;line-height:1.25;font-family:sans-serif;display:inline;stroke-width:.264583"><tspan id="tspan12" x="398.179" y="115.55" style="font-style:normal;font-variant:normal;font-weight:400;font-stretch:normal;font-size:4.49792px;line-height:1.25;font-family:Arial;-inkscape-font-specification:Arial;text-align:center;baseline-shift:baseline;text-anchor:middle;stroke-width:.264583">Kornform</tspan><tspan id="tspan25" x="398.179" y="121.172" style="font-style:normal;font-variant:normal;font-weight:400;font-stretch:normal;font-size:4.49792px;line-height:1.25;font-family:Arial;-inkscape-font-specification:Arial;text-align:center;baseline-shift:baseline;text-anchor:middle;stroke-width:.264583">Lockerschnee</tspan></text><text xml:space="preserve" id="text18" x="96.035" y="178.8" style="font-size:4.49792px;line-height:1.25;font-family:sans-serif;display:inline;stroke-width:.264583"><tspan id="tspan9" x="96.035" y="178.8" style="font-style:normal;font-variant:normal;font-weight:400;font-stretch:normal;font-size:4.49792px;line-height:1.25;font-family:Arial;-inkscape-font-specification:Arial;text-align:center;baseline-shift:baseline;text-anchor:middle;stroke-width:.264583">Gefahrenstellen</tspan><tspan id="tspan21" x="96.035" y="184.422" style="font-style:normal;font-variant:normal;font-weight:400;font-stretch:normal;font-size:4.49792px;line-height:1.25;font-family:Arial;-inkscape-font-specification:Arial;text-align:center;baseline-shift:baseline;text-anchor:middle;stroke-width:.264583">erkennbar?</tspan></text><text xml:space="preserve" id="text17" x="177.535" y="178.8" style="font-size:4.49792px;line-height:1.25;font-family:sans-serif;display:inline;stroke-width:.264583"><tspan id="tspan11" x="177.535" y="178.8" style="font-style:normal;font-variant:normal;font-weight:400;font-stretch:normal;font-size:4.49792px;line-height:1.25;font-family:Arial;-inkscape-font-specification:Arial;text-align:center;baseline-shift:baseline;text-anchor:middle;stroke-width:.264583">Gefahrenstellen</tspan><tspan id="tspan23" x="177.535" y="184.422" style="font-style:normal;font-variant:normal;font-weight:400;font-stretch:normal;font-size:4.49792px;line-height:1.25;font-family:Arial;-inkscape-font-specification:Arial;text-align:center;baseline-shift:baseline;text-anchor:middle;stroke-width:.264583">erkennbar?</tspan></text></g></g><g id="layer6" style="display:inline"><g id="layer7" style="display:inline"><path id="path28" d="M237.75 4.34v9.289" style="opacity:1;fill:none;fill-opacity:1;stroke:#4472c4;stroke-width:.899999;stroke-linecap:round;stroke-linejoin:bevel;stroke-dasharray:none;stroke-opacity:1;marker-end:url(#marker31);paint-order:normal"/><path id="path30" d="M237.75 41.55v24.952" style="display:inline;opacity:1;fill:none;fill-opacity:1;stroke:#4472c4;stroke-width:.899999;stroke-linecap:round;stroke-linejoin:bevel;stroke-dasharray:none;stroke-opacity:1;marker-end:url(#RoundedArrow);paint-order:normal"/><path id="path42" d="m208.95 30.5-172.825.01V235.5" style="opacity:1;fill:none;fill-opacity:1;stroke:#4472c4;stroke-width:.899999;stroke-linecap:round;stroke-linejoin:bevel;stroke-dasharray:none;stroke-opacity:1;marker-end:url(#RoundedArrow);paint-order:normal"/><path id="path43" d="M263.814 35.2H398.25v67.261" style="opacity:1;fill:none;fill-opacity:1;stroke:#4472c4;stroke-width:.89122;stroke-linecap:round;stroke-linejoin:bevel;stroke-dasharray:none;stroke-opacity:1;marker-end:url(#RoundedArrow);paint-order:normal"/><path id="path44" d="M199.2 80.75h-61.45v46.618" style="opacity:1;fill:none;fill-opacity:1;stroke:#4472c4;stroke-width:.89122;stroke-linecap:round;stroke-linejoin:bevel;stroke-dasharray:none;stroke-opacity:1;marker-end:url(#RoundedArrow);paint-order:normal"/><path id="path45" d="M108.95 141.75H96v20.485" style="opacity:1;fill:none;fill-opacity:1;stroke:#4472c4;stroke-width:.89122;stroke-linecap:round;stroke-linejoin:bevel;stroke-dasharray:none;stroke-opacity:1;marker-end:url(#RoundedArrow);paint-order:normal"/><path id="path46" d="M96 193.55v22.776" style="opacity:1;fill:none;fill-opacity:1;stroke:#4472c4;stroke-width:.89122;stroke-linecap:round;stroke-linejoin:bevel;stroke-dasharray:none;stroke-opacity:1;paint-order:normal"/><path id="path47" d="M78 216.772h36" style="opacity:1;fill:none;fill-opacity:1;stroke:#4472c4;stroke-width:.89122;stroke-linecap:round;stroke-linejoin:bevel;stroke-dasharray:none;stroke-opacity:1;paint-order:normal"/><path id="path48" d="m78 216.772-.006 18.725" style="opacity:1;fill:none;fill-opacity:1;stroke:#4472c4;stroke-width:.89122;stroke-linecap:round;stroke-linejoin:bevel;stroke-dasharray:none;stroke-opacity:1;marker-end:url(#RoundedArrow);paint-order:normal"/><path id="path49" d="M114 216.772V235.5" style="opacity:1;fill:none;fill-opacity:1;stroke:#4472c4;stroke-width:.89122;stroke-linecap:round;stroke-linejoin:bevel;stroke-dasharray:none;stroke-opacity:1;marker-end:url(#RoundedArrow);paint-order:normal"/><path id="path50" d="M177.5 193.55v22.776" style="opacity:1;fill:none;fill-opacity:1;stroke:#4472c4;stroke-width:.89122;stroke-linecap:round;stroke-linejoin:bevel;stroke-dasharray:none;stroke-opacity:1;paint-order:normal"/><path id="path51" d="M159.5 216.772h36" style="opacity:1;fill:none;fill-opacity:1;stroke:#4472c4;stroke-width:.89122;stroke-linecap:round;stroke-linejoin:bevel;stroke-dasharray:none;stroke-opacity:1;paint-order:normal"/><path id="path52" d="M159.5 216.772v18.726" style="opacity:1;fill:none;fill-opacity:1;stroke:#4472c4;stroke-width:.89122;stroke-linecap:round;stroke-linejoin:bevel;stroke-dasharray:none;stroke-opacity:1;marker-end:url(#RoundedArrow);paint-order:normal"/><path id="path53" d="M195.5 216.772v18.726" style="opacity:1;fill:none;fill-opacity:1;stroke:#4472c4;stroke-width:.89122;stroke-linecap:round;stroke-linejoin:bevel;stroke-dasharray:none;stroke-opacity:1;marker-end:url(#RoundedArrow);paint-order:normal"/><path id="path54" d="m237.75 91.05-.375 144.454" style="opacity:1;fill:none;fill-opacity:1;stroke:#4472c4;stroke-width:.89122;stroke-linecap:round;stroke-linejoin:bevel;stroke-dasharray:none;stroke-opacity:1;marker-end:url(#RoundedArrow);paint-order:normal"/><path id="path55" d="M276.3 80.75h20.95v46.518" style="opacity:1;fill:none;fill-opacity:1;stroke:#4472c4;stroke-width:.89122;stroke-linecap:round;stroke-linejoin:bevel;stroke-dasharray:none;stroke-opacity:1;marker-end:url(#RoundedArrow);paint-order:normal"/><path id="path58" d="M279.25 195.95h35.99" style="opacity:1;fill:none;fill-opacity:1;stroke:#4472c4;stroke-width:.89122;stroke-linecap:round;stroke-linejoin:bevel;stroke-dasharray:none;stroke-opacity:1;paint-order:normal"/><path id="path59" d="m297.25 152.05-.005 43.9" style="opacity:1;fill:none;fill-opacity:1;stroke:#4472c4;stroke-width:.89122;stroke-linecap:round;stroke-linejoin:bevel;stroke-dasharray:none;stroke-opacity:1;paint-order:normal"/><path id="path60" d="M398.25 127.05v108.448" style="opacity:1;fill:none;fill-opacity:1;stroke:#4472c4;stroke-width:.89122;stroke-linecap:round;stroke-linejoin:bevel;stroke-dasharray:none;stroke-opacity:1;marker-end:url(#RoundedArrow);paint-order:normal"/><path id="path61" d="M427.05 116.75h7.2v118.748" style="opacity:1;fill:none;fill-opacity:1;stroke:#4472c4;stroke-width:.89122;stroke-linecap:round;stroke-linejoin:bevel;stroke-dasharray:none;stroke-opacity:1;marker-end:url(#RoundedArrow);paint-order:normal"/><path id="path62" d="M369.45 116.747h-7.2v118.751" style="opacity:1;fill:none;fill-opacity:1;stroke:#4472c4;stroke-width:.89122;stroke-linecap:round;stroke-linejoin:bevel;stroke-dasharray:none;stroke-opacity:1;marker-end:url(#RoundedArrow);paint-order:normal"/><path id="path63" d="M279.25 195.95v39.547" style="opacity:1;fill:none;fill-opacity:1;stroke:#4472c4;stroke-width:.89122;stroke-linecap:round;stroke-linejoin:bevel;stroke-dasharray:none;stroke-opacity:1;marker-end:url(#RoundedArrow);paint-order:normal"/><path id="path64" d="m315.24 195.95.01 39.548" style="opacity:1;fill:none;fill-opacity:1;stroke:#4472c4;stroke-width:.89122;stroke-linecap:round;stroke-linejoin:bevel;stroke-dasharray:none;stroke-opacity:1;marker-end:url(#RoundedArrow);paint-order:normal"/><path id="path98" d="M166.55 141.75h10.95v20.552" style="opacity:1;fill:none;fill-opacity:1;stroke:#4472c4;stroke-width:.89122;stroke-linecap:round;stroke-linejoin:bevel;stroke-dasharray:none;stroke-opacity:1;marker-end:url(#RoundedArrow);paint-order:normal"/><path id="path17" d="M263.814 25.641h217.49V235.44" style="opacity:1;fill:none;fill-opacity:1;stroke:#4472c4;stroke-width:.891221;stroke-linecap:round;stroke-linejoin:bevel;stroke-dasharray:none;stroke-opacity:1;marker-end:url(#RoundedArrow);paint-order:normal"/></g><g id="layer8" style="display:inline"><text xml:space="preserve" id="text64" x="109.55" y="27.378" style="font-size:4.49792px;line-height:1.25;font-family:sans-serif;fill:#31538f;fill-opacity:1;stroke-width:.264583"><tspan id="tspan14" x="109.55" y="27.378" style="font-style:normal;font-variant:normal;font-weight:400;font-stretch:normal;font-size:4.49792px;font-family:Arial;-inkscape-font-specification:Arial;fill:#31538f;fill-opacity:1;stroke-width:.264583">Gleitschneelawine</tspan></text><text xml:space="preserve" id="text65" x="299.627" y="33.385" style="font-size:4.49792px;line-height:1.25;font-family:sans-serif;fill:#31538f;fill-opacity:1;stroke-width:.264583"><tspan id="tspan65" x="299.627" y="33.385" style="font-style:normal;font-variant:normal;font-weight:400;font-stretch:normal;font-size:4.49792px;font-family:Arial;-inkscape-font-specification:Arial;fill:#31538f;fill-opacity:1;stroke-width:.264583">Lockerschneelawine</tspan></text><text xml:space="preserve" id="text66" x="199.444" y="54.582" style="font-size:4.49792px;line-height:1.25;font-family:sans-serif;fill:#31538f;fill-opacity:1;stroke-width:.264583"><tspan id="tspan66" x="199.444" y="54.582" style="font-style:normal;font-variant:normal;font-weight:400;font-stretch:normal;font-size:4.49792px;font-family:Arial;-inkscape-font-specification:Arial;fill:#31538f;fill-opacity:1;stroke-width:.264583">Schneebrettlawine</tspan></text><text xml:space="preserve" id="text67" x="144.413" y="95.95" style="font-size:4.49792px;line-height:1.25;font-family:sans-serif;fill:#31538f;fill-opacity:1;stroke-width:.264583"><tspan id="tspan17" x="144.413" y="95.95" style="font-style:normal;font-variant:normal;font-weight:400;font-stretch:normal;font-size:4.49792px;font-family:Arial;-inkscape-font-specification:Arial;fill:#31538f;fill-opacity:1;stroke-width:.264583">Neuschnee</tspan><tspan id="tspan1" x="144.413" y="101.573" style="font-style:normal;font-variant:normal;font-weight:400;font-stretch:normal;font-size:4.49792px;font-family:Arial;-inkscape-font-specification:Arial;fill:#31538f;fill-opacity:1;stroke-width:.264583">Filziger Schnee</tspan><tspan id="tspan7" x="144.413" y="107.195" style="font-style:normal;font-variant:normal;font-weight:400;font-stretch:normal;font-size:4.49792px;font-family:Arial;-inkscape-font-specification:Arial;fill:#31538f;fill-opacity:1;stroke-width:.264583">Kleine Runde</tspan><tspan id="tspan8" x="144.413" y="112.818" style="font-style:normal;font-variant:normal;font-weight:400;font-stretch:normal;font-size:4.49792px;font-family:Arial;-inkscape-font-specification:Arial;fill:#31538f;fill-opacity:1;stroke-width:.264583">Kantige Kristalle</tspan></text><text xml:space="preserve" id="text70" x="265.782" y="103.334" style="font-size:4.49792px;line-height:1.25;font-family:sans-serif;fill:#31538f;fill-opacity:1;stroke-width:.264583"><tspan id="tspan70" x="265.782" y="103.334" style="font-style:normal;font-variant:normal;font-weight:400;font-stretch:normal;font-size:4.49792px;font-family:Arial;-inkscape-font-specification:Arial;fill:#31538f;fill-opacity:1;stroke-width:.264583">Schmelzkruste</tspan></text><text xml:space="preserve" id="text71" x="72.702" y="156.272" style="font-size:4.49792px;line-height:1.25;font-family:sans-serif;fill:#31538f;fill-opacity:1;stroke-width:.264583"><tspan id="tspan71" x="72.702" y="156.272" style="font-style:normal;font-variant:normal;font-weight:400;font-stretch:normal;font-size:4.49792px;font-family:Arial;-inkscape-font-specification:Arial;fill:#31538f;fill-opacity:1;stroke-width:.264583">persistent</tspan></text><text xml:space="preserve" id="text72" x="180.669" y="156.272" style="font-size:4.49792px;line-height:1.25;font-family:sans-serif;fill:#31538f;fill-opacity:1;stroke-width:.264583"><tspan id="tspan72" x="180.669" y="156.272" style="font-style:normal;font-variant:normal;font-weight:400;font-stretch:normal;font-size:4.49792px;font-family:Arial;-inkscape-font-specification:Arial;fill:#31538f;fill-opacity:1;stroke-width:.264583">nicht persistent</tspan></text><text xml:space="preserve" id="text73" x="245.438" y="158.829" style="font-size:4.49792px;line-height:1.25;font-family:sans-serif;fill:#31538f;fill-opacity:1;stroke-width:.264583"><tspan id="tspan74" x="245.438" y="158.829" style="font-style:normal;font-variant:normal;font-weight:400;font-stretch:normal;font-size:4.49792px;font-family:Arial;-inkscape-font-specification:Arial;fill:#31538f;fill-opacity:1;stroke-width:.264583">Schmelzform</tspan></text><text xml:space="preserve" id="text76" x="355.295" y="155.801" style="font-size:4.49792px;line-height:1.25;font-family:sans-serif;fill:#31538f;fill-opacity:1;stroke-width:.264583"><tspan id="tspan77" x="355.295" y="155.801" style="font-style:normal;font-variant:normal;font-weight:400;font-stretch:normal;font-size:4.49792px;font-family:Arial;-inkscape-font-specification:Arial;text-align:end;text-anchor:end;fill:#31538f;fill-opacity:1;stroke-width:.264583">Neuschnee</tspan><tspan id="tspan28" x="355.295" y="161.424" style="font-style:normal;font-variant:normal;font-weight:400;font-stretch:normal;font-size:4.49792px;font-family:Arial;-inkscape-font-specification:Arial;text-align:end;text-anchor:end;fill:#31538f;fill-opacity:1;stroke-width:.264583">Filziger Schnee</tspan></text><text xml:space="preserve" id="text79" x="391.064" y="155.72" style="font-size:4.49792px;line-height:1.25;font-family:sans-serif;fill:#31538f;fill-opacity:1;stroke-width:.264583"><tspan id="tspan79" x="391.064" y="155.72" style="font-style:normal;font-variant:normal;font-weight:400;font-stretch:normal;font-size:4.49792px;font-family:Arial;-inkscape-font-specification:Arial;text-align:end;text-anchor:end;fill:#31538f;fill-opacity:1;stroke-width:.264583">Kantige</tspan><tspan id="tspan80" x="391.064" y="161.342" style="font-style:normal;font-variant:normal;font-weight:400;font-stretch:normal;font-size:4.49792px;font-family:Arial;-inkscape-font-specification:Arial;text-align:end;text-anchor:end;fill:#31538f;fill-opacity:1;stroke-width:.264583">Kristalle</tspan><tspan id="tspan82" x="391.064" y="166.964" style="font-style:normal;font-variant:normal;font-weight:400;font-stretch:normal;font-size:4.49792px;font-family:Arial;-inkscape-font-specification:Arial;text-align:end;text-anchor:end;fill:#31538f;fill-opacity:1;stroke-width:.264583">Oberflächen-</tspan><tspan id="tspan33" x="391.064" y="172.587" style="font-style:normal;font-variant:normal;font-weight:400;font-stretch:normal;font-size:4.49792px;font-family:Arial;-inkscape-font-specification:Arial;text-align:end;text-anchor:end;fill:#31538f;fill-opacity:1;stroke-width:.264583">reif</tspan><tspan id="tspan83" x="391.064" y="178.209" style="font-style:normal;font-variant:normal;font-weight:400;font-stretch:normal;font-size:4.49792px;font-family:Arial;-inkscape-font-specification:Arial;text-align:end;text-anchor:end;fill:#31538f;fill-opacity:1;stroke-width:.264583">Tiefenreif</tspan></text><text xml:space="preserve" id="text88" x="427.664" y="161.398" style="font-size:4.49792px;line-height:1.25;font-family:sans-serif;fill:#31538f;fill-opacity:1;stroke-width:.264583"><tspan id="tspan92" x="427.664" y="161.398" style="font-style:normal;font-variant:normal;font-weight:400;font-stretch:normal;font-size:4.49792px;font-family:Arial;-inkscape-font-specification:Arial;text-align:end;text-anchor:end;fill:#31538f;fill-opacity:1;stroke-width:.264583">Schmelzform</tspan></text><text xml:space="preserve" id="text93" x="262.712" y="191.098" style="font-size:4.49792px;line-height:1.25;font-family:sans-serif;fill:#31538f;fill-opacity:1;stroke-width:.264583"><tspan id="tspan93" x="262.712" y="191.098" style="font-style:normal;font-variant:normal;font-weight:400;font-stretch:normal;font-size:4.49792px;font-family:Arial;-inkscape-font-specification:Arial;fill:#31538f;fill-opacity:1;stroke-width:.264583">persistent</tspan></text><text xml:space="preserve" id="text94" x="311.243" y="191.098" style="font-size:4.49792px;line-height:1.25;font-family:sans-serif;fill:#31538f;fill-opacity:1;stroke-width:.264583"><tspan id="tspan94" x="311.243" y="191.098" style="font-style:normal;font-variant:normal;font-weight:400;font-stretch:normal;font-size:4.49792px;font-family:Arial;-inkscape-font-specification:Arial;fill:#31538f;fill-opacity:1;stroke-width:.264583">nicht persistent</tspan></text><text xml:space="preserve" id="text95" x="72.434" y="211.941" style="font-size:4.49792px;line-height:1.25;font-family:sans-serif;fill:#31538f;fill-opacity:1;stroke-width:.264583"><tspan id="tspan95" x="72.434" y="211.941" style="font-style:normal;font-variant:normal;font-weight:400;font-stretch:normal;font-size:4.49792px;font-family:Arial;-inkscape-font-specification:Arial;fill:#31538f;fill-opacity:1;stroke-width:.264583">nein</tspan></text><text xml:space="preserve" id="text96" x="113.14" y="211.941" style="font-size:4.49792px;line-height:1.25;font-family:sans-serif;fill:#31538f;fill-opacity:1;stroke-width:.264583"><tspan id="tspan96" x="113.14" y="211.941" style="font-style:normal;font-variant:normal;font-weight:400;font-stretch:normal;font-size:4.49792px;font-family:Arial;-inkscape-font-specification:Arial;fill:#31538f;fill-opacity:1;stroke-width:.264583">ja</tspan></text><text xml:space="preserve" id="text97" x="153.645" y="211.941" style="font-size:4.49792px;line-height:1.25;font-family:sans-serif;fill:#31538f;fill-opacity:1;stroke-width:.264583"><tspan id="tspan97" x="153.645" y="211.941" style="font-style:normal;font-variant:normal;font-weight:400;font-stretch:normal;font-size:4.49792px;font-family:Arial;-inkscape-font-specification:Arial;fill:#31538f;fill-opacity:1;stroke-width:.264583">nein</tspan></text><text xml:space="preserve" id="text98" x="194.351" y="211.941" style="font-size:4.49792px;line-height:1.25;font-family:sans-serif;fill:#31538f;fill-opacity:1;stroke-width:.264583"><tspan id="tspan98" x="194.351" y="211.941" style="font-style:normal;font-variant:normal;font-weight:400;font-stretch:normal;font-size:4.49792px;font-family:Arial;-inkscape-font-specification:Arial;fill:#31538f;fill-opacity:1;stroke-width:.264583">ja</tspan></text><text xml:space="preserve" id="text27" x="299.627" y="22.956" style="font-size:4.49792px;line-height:1.25;font-family:sans-serif;fill:#31538f;fill-opacity:1;stroke-width:.264583"><tspan id="tspan27" x="299.627" y="22.956" style="font-style:normal;font-variant:normal;font-weight:400;font-stretch:normal;font-size:4.49792px;font-family:Arial;-inkscape-font-specification:Arial;fill:#31538f;fill-opacity:1;stroke-width:.264583">Wechten</tspan></text><g id="text45" aria-label="a cd e" style="font-size:4.49792px;line-height:1.25;fill:#31538f;stroke-width:.264583"><path id="path56" d="M140.724 94.48v-.322h1.008V93.15h.323v1.008h1.004v.323h-1.004v1.003h-.323v-1.003z" style="font-family:SnowSymbolsIACS;-inkscape-font-specification:SnowSymbolsIACS"/><path id="path57" d="m140.566 101.099 2.429-2.33.226.232-2.429 2.33z" style="font-family:SnowSymbolsIACS;-inkscape-font-specification:SnowSymbolsIACS"/><path id="path65" d="M140.909 105.782q0-.203.076-.383.077-.18.211-.314.136-.136.314-.213.18-.077.385-.077.202 0 .377.077.178.077.312.213.136.134.213.314.077.178.077.383 0 .202-.077.38-.077.177-.213.311-.134.134-.312.211-.175.077-.377.077t-.382-.077q-.18-.077-.317-.21-.134-.135-.21-.313-.077-.177-.077-.38z" style="font-family:SnowSymbolsIACS;-inkscape-font-specification:SnowSymbolsIACS"/><path id="path66" d="M140.724 112.676v-2.335h2.335v2.335zm.33-.323h1.682v-1.682h-1.683z" style="font-family:SnowSymbolsIACS;-inkscape-font-specification:SnowSymbolsIACS"/></g><path id="text68" d="M256.505 101.725q0-.477.18-.894.18-.42.492-.731.315-.315.732-.495t.896-.18q.261 0 .512.062.252.06.478.173.229.112.426.266.198.152.354.34.158-.188.356-.34.198-.154.424-.266.228-.114.476-.173.25-.062.516-.062.477 0 .894.18.42.18.732.495.314.311.494.729.18.417.18.896 0 .476-.18.896-.18.417-.494.729-.312.312-.732.492-.417.18-.894.18-.265 0-.516-.061-.248-.06-.476-.172-.226-.11-.424-.266-.198-.153-.356-.342-.158.189-.356.342-.195.156-.424.266-.226.112-.478.172-.253.061-.512.061-.477 0-.896-.18-.417-.18-.732-.492-.311-.312-.491-.73-.18-.419-.18-.895zm.323 0q0 .408.156.768.156.36.422.626.268.268.628.424.36.156.77.156.258 0 .504-.077.248-.077.474-.22.226-.14.429-.34.204-.2.364-.443.163.243.362.443.2.2.429.34.23.143.479.22.248.077.502.077.409 0 .767-.156.358-.156.626-.424.268-.265.422-.626.155-.36.155-.768 0-.409-.155-.767-.154-.358-.422-.626t-.626-.421q-.358-.156-.767-.156-.256 0-.505.077-.246.074-.476.215-.229.138-.429.338-.2.2-.362.444-.162-.244-.364-.444-.203-.2-.429-.338-.226-.14-.474-.215-.248-.077-.503-.077-.409 0-.771.156-.36.153-.628.421-.266.268-.422.626-.156.356-.156.767zm.758 0q0-.253.094-.475.095-.224.26-.386.166-.165.388-.262.224-.096.477-.096.252 0 .474.096.222.097.385.262.164.162.26.386.1.222.1.475 0 .252-.1.474-.096.222-.26.387-.163.164-.387.261-.222.097-.472.097-.253 0-.477-.097-.222-.097-.388-.261-.165-.165-.26-.387-.094-.222-.094-.474zm.323 0q0 .184.068.347.07.16.191.283.123.12.288.191.164.068.349.068.184 0 .345-.068.162-.07.283-.19.123-.124.191-.284.07-.163.07-.347 0-.185-.07-.35-.068-.164-.19-.285-.122-.12-.284-.191-.163-.07-.345-.07-.185 0-.35.07-.164.07-.287.191-.12.12-.191.286-.068.164-.068.349zm3.224 0q0-.253.094-.475.095-.224.26-.386.166-.165.388-.262.224-.096.477-.096.252 0 .474.096.222.097.385.262.164.162.26.386.1.222.1.475 0 .252-.1.474-.096.222-.26.387-.163.164-.387.261-.222.097-.472.097-.253 0-.477-.097-.222-.097-.389-.261-.164-.165-.259-.387-.094-.222-.094-.474zm.323 0q0 .184.068.347.07.16.191.283.123.12.288.191.164.068.349.068.184 0 .345-.068.162-.07.283-.19.123-.124.191-.284.07-.163.07-.347 0-.185-.07-.35-.068-.164-.191-.285-.12-.12-.283-.191-.163-.07-.345-.07-.185 0-.35.07-.164.07-.287.191-.12.12-.191.286-.068.164-.068.349z" aria-label="Oh" style="font-size:4.49792px;line-height:1.25;font-family:SnowSymbolsIACS;-inkscape-font-specification:SnowSymbolsIACS;fill:#31538f;stroke-width:.264583"/><path id="text69" d="M242.025 157.22q0-.253.095-.475.094-.224.259-.387.167-.164.389-.261.224-.097.476-.097.253 0 .475.097.221.097.384.261.165.163.261.387.099.222.099.474 0 .253-.099.475-.096.222-.261.386-.163.165-.387.262-.221.096-.472.096-.252 0-.476-.096-.222-.097-.39-.262-.164-.164-.258-.386-.095-.222-.095-.475zm.323 0q0 .184.068.346.07.16.191.284.123.12.288.19.165.069.35.069.184 0 .344-.068.163-.07.283-.191.123-.123.191-.284.07-.162.07-.347 0-.184-.07-.349-.068-.165-.19-.285-.121-.121-.284-.191-.163-.07-.345-.07-.184 0-.349.07-.165.07-.288.19-.12.121-.19.286-.069.165-.069.35z" aria-label="h" style="font-size:4.49792px;line-height:1.25;font-family:SnowSymbolsIACS;-inkscape-font-specification:SnowSymbolsIACS;fill:#31538f;stroke-width:.264583"/><g id="text77" aria-label="a c" style="font-size:4.49792px;line-height:1.25;fill:#31538f;stroke-width:.264583"><path id="path77" d="M356.717 154.716v-.323h1.008v-1.008h.323v1.008h1.004v.323h-1.004v1.004h-.323v-1.004z" style="font-family:SnowSymbolsIACS;-inkscape-font-specification:SnowSymbolsIACS"/><path id="path78" d="m356.559 161.334 2.429-2.33.226.232-2.429 2.33z" style="font-family:SnowSymbolsIACS;-inkscape-font-specification:SnowSymbolsIACS"/></g><path id="text84" d="M428.782 159.788q0-.253.095-.475.094-.224.259-.386.167-.165.388-.262.224-.096.477-.096t.474.096q.222.097.385.262.164.162.261.386.099.222.099.475 0 .252-.099.474-.096.222-.261.387-.163.164-.387.261-.222.097-.472.097-.253 0-.477-.097-.221-.097-.388-.261-.165-.165-.26-.387-.094-.222-.094-.474zm.323 0q0 .184.068.347.07.16.191.283.123.12.288.191.165.068.35.068.184 0 .344-.068.162-.07.283-.19.123-.124.191-.284.07-.163.07-.347 0-.185-.07-.35-.068-.164-.19-.285-.122-.12-.284-.191-.163-.07-.345-.07-.184 0-.35.07-.164.07-.287.191-.12.12-.19.286-.069.164-.069.349z" aria-label="h" style="font-size:4.49792px;line-height:1.25;font-family:SnowSymbolsIACS;-inkscape-font-specification:SnowSymbolsIACS;text-align:end;text-anchor:end;fill:#31538f;stroke-width:.264583"/><g id="text110" aria-label="eg" style="font-size:4.49792px;line-height:1.25;fill:#31538f;stroke-width:.264583"><path id="path121" d="M392.775 158.52v-2.335h2.334v2.335zm.33-.323h1.682v-1.682h-1.683z" style="font-family:SnowSymbolsIACS;-inkscape-font-specification:SnowSymbolsIACS;text-align:end;text-anchor:end"/><path id="path122" d="m392.522 167.732.28-.167 1.143 1.98 1.138-1.98.279.167-1.417 2.464z" style="font-family:SnowSymbolsIACS;-inkscape-font-specification:SnowSymbolsIACS;text-align:end;text-anchor:end"/></g><path id="text118" d="m392.522 177.977 1.423-2.464 1.417 2.464-.279.163-1.138-1.975-1.144 1.975z" aria-label="f" style="font-size:4.49792px;line-height:1.25;font-family:SnowSymbolsIACS;-inkscape-font-specification:SnowSymbolsIACS;text-align:end;text-anchor:end;fill:#31538f;stroke-width:.264583"/></g></g></g><g id="layer10"><g id="layer11" style="display:inline"><image xlink:href="Wet_snow_c.svg" id="image1-55" width="32" height="32" x="418.25" y="240" preserveAspectRatio="none" style="display:inline;stroke-width:2.48047"/><path id="rect41" d="M382.45 240.45h31.1v31.1h-31.1z" style="display:inline;opacity:1;fill:#f2f2f2;fill-opacity:1;stroke:#000;stroke-width:.899999;stroke-linecap:round;stroke-linejoin:bevel;stroke-dasharray:none;stroke-opacity:1;paint-order:normal"/><image xlink:href="New_snow_c.svg" id="image109" width="32" height="32" x="346.25" y="240" preserveAspectRatio="none" style="display:inline;stroke-width:2.48047"/><image xlink:href="Wet_snow_c.svg" id="image112" width="32" height="32" x="299.25" y="240" preserveAspectRatio="none" style="display:inline;stroke-width:2.48047"/><image xlink:href="Persistent_weak_layers_c.svg" id="image111" width="32" height="32" x="263.25" y="240" preserveAspectRatio="none" style="display:inline;stroke-width:2.48047"/><image xlink:href="Wet_snow_c.svg" id="image113" width="32" height="32" x="221.375" y="240" preserveAspectRatio="none" style="display:inline;stroke-width:2.48047"/><image xlink:href="Drifting_snow_c.svg" id="image1-1" width="32" height="32" x="179.5" y="240" preserveAspectRatio="none" style="display:inline;stroke-width:2.48047"/><image xlink:href="New_snow_c.svg" id="image1-5" width="32" height="32" x="143.5" y="240" preserveAspectRatio="none" style="display:inline;stroke-width:2.48047"/><image xlink:href="Drifting_snow_c.svg" id="image110" width="32" height="32" x="98" y="240" preserveAspectRatio="none" style="display:inline;stroke-width:2.48047"/><image xlink:href="Persistent_weak_layers_c.svg" id="image1-2" width="32" height="32" x="62" y="240" preserveAspectRatio="none" style="display:inline;stroke-width:2.48047"/><image xlink:href="Gliding_snow_c.svg" id="image1-56" width="32" height="32" x="20.125" y="240" preserveAspectRatio="none" style="display:inline;fill:none;stroke:none;stroke-width:2.48047"/><image xlink:href="Cornices_c.svg" id="image1" width="32" height="32" x="465.25" y="240" preserveAspectRatio="none" style="stroke-width:4.96095"/></g><g id="layer12" style="display:inline"><text xml:space="preserve" id="text99" x="19.886" y="276.784" style="font-size:4.49792px;line-height:1.25;font-family:sans-serif;display:inline;stroke-width:.264583"><tspan id="tspan99" x="19.886" y="276.784" style="font-style:normal;font-variant:normal;font-weight:400;font-stretch:normal;font-size:4.49792px;font-family:Arial;-inkscape-font-specification:Arial;stroke-width:.264583">Gleitschnee</tspan></text><text xml:space="preserve" id="text100" x="61.761" y="276.784" style="font-size:4.49792px;line-height:1.25;font-family:sans-serif;display:inline;stroke-width:.264583"><tspan id="tspan100" x="61.761" y="276.784" style="font-style:normal;font-variant:normal;font-weight:400;font-stretch:normal;font-size:4.49792px;font-family:Arial;-inkscape-font-specification:Arial;stroke-width:.264583">Altschnee</tspan></text><text xml:space="preserve" id="text101" x="97.761" y="276.784" style="font-size:4.49792px;line-height:1.25;font-family:sans-serif;display:inline;stroke-width:.264583"><tspan id="tspan101" x="97.761" y="276.784" style="font-style:normal;font-variant:normal;font-weight:400;font-stretch:normal;font-size:4.49792px;font-family:Arial;-inkscape-font-specification:Arial;stroke-width:.264583">Triebschnee</tspan></text><text xml:space="preserve" id="text102" x="143.261" y="276.784" style="font-size:4.49792px;line-height:1.25;font-family:sans-serif;display:inline;stroke-width:.264583"><tspan id="tspan102" x="143.261" y="276.784" style="font-style:normal;font-variant:normal;font-weight:400;font-stretch:normal;font-size:4.49792px;font-family:Arial;-inkscape-font-specification:Arial;stroke-width:.264583">Neuschnee</tspan></text><text xml:space="preserve" id="text103" x="179.261" y="276.784" style="font-size:4.49792px;line-height:1.25;font-family:sans-serif;display:inline;stroke-width:.264583"><tspan id="tspan103" x="179.261" y="276.784" style="font-style:normal;font-variant:normal;font-weight:400;font-stretch:normal;font-size:4.49792px;font-family:Arial;-inkscape-font-specification:Arial;stroke-width:.264583">Triebschnee</tspan></text><text xml:space="preserve" id="text104" x="221.136" y="276.784" style="font-size:4.49792px;line-height:1.25;font-family:sans-serif;display:inline;stroke-width:.264583"><tspan id="tspan104" x="221.136" y="276.784" style="font-style:normal;font-variant:normal;font-weight:400;font-stretch:normal;font-size:4.49792px;font-family:Arial;-inkscape-font-specification:Arial;stroke-width:.264583">Nassschnee</tspan></text><text xml:space="preserve" id="text105" x="263.011" y="276.784" style="font-size:4.49792px;line-height:1.25;font-family:sans-serif;display:inline;stroke-width:.264583"><tspan id="tspan105" x="263.011" y="276.784" style="font-style:normal;font-variant:normal;font-weight:400;font-stretch:normal;font-size:4.49792px;font-family:Arial;-inkscape-font-specification:Arial;stroke-width:.264583">Altschnee</tspan></text><text xml:space="preserve" id="text106" x="299.011" y="276.784" style="font-size:4.49792px;line-height:1.25;font-family:sans-serif;display:inline;stroke-width:.264583"><tspan id="tspan106" x="299.011" y="276.784" style="font-style:normal;font-variant:normal;font-weight:400;font-stretch:normal;font-size:4.49792px;font-family:Arial;-inkscape-font-specification:Arial;stroke-width:.264583">Nassschnee</tspan></text><text xml:space="preserve" id="text107" x="346.011" y="276.784" style="font-size:4.49792px;line-height:1.25;font-family:sans-serif;display:inline;stroke-width:.264583"><tspan id="tspan107" x="346.011" y="276.784" style="font-style:normal;font-variant:normal;font-weight:400;font-stretch:normal;font-size:4.49792px;font-family:Arial;-inkscape-font-specification:Arial;stroke-width:.264583">Neuschnee</tspan></text><text xml:space="preserve" id="text109" x="418.011" y="276.784" style="font-size:4.49792px;line-height:1.25;font-family:sans-serif;display:inline;stroke-width:.264583"><tspan id="tspan109" x="418.011" y="276.784" style="font-style:normal;font-variant:normal;font-weight:400;font-stretch:normal;font-size:4.49792px;font-family:Arial;-inkscape-font-specification:Arial;stroke-width:.264583">Nassschnee</tspan></text><text xml:space="preserve" id="text113" x="397.979" y="254.556" style="font-size:5.29167px;line-height:1.25;font-family:sans-serif;text-align:center;text-anchor:middle;display:inline;stroke-width:.264583"><tspan id="tspan113" x="397.979" y="254.556" style="font-style:normal;font-variant:normal;font-weight:700;font-stretch:normal;font-size:5.29167px;font-family:Arial;-inkscape-font-specification:Arial;text-align:center;text-anchor:middle;stroke-width:.264583">kein</tspan><tspan id="tspan114" x="397.979" y="261.17" style="font-style:normal;font-variant:normal;font-weight:700;font-stretch:normal;font-size:5.29167px;font-family:Arial;-inkscape-font-specification:Arial;text-align:center;text-anchor:middle;stroke-width:.264583">Problem</tspan></text><text xml:space="preserve" id="text26" x="465.01" y="276.784" style="font-size:4.49792px;line-height:1.25;font-family:sans-serif;display:inline;stroke-width:.264583"><tspan id="tspan26" x="465.01" y="276.784" style="font-style:normal;font-variant:normal;font-weight:400;font-stretch:normal;font-size:4.49792px;font-family:Arial;-inkscape-font-specification:Arial;stroke-width:.264583">Wechten</tspan></text></g></g></g></svg>