<svg xmlns="http://www.w3.org/2000/svg" xmlns:xlink="http://www.w3.org/1999/xlink" xml:space="preserve" id="svg1" width="1966.639" height="1080" version="1.1" viewBox="0 0 520.34 285.75"><defs id="defs1"><marker id="marker31" markerHeight="1" markerWidth="1.2" orient="auto-start-reverse" preserveAspectRatio="none" refX="0" refY="0" style="overflow:visible" viewBox="0 0 1 1"><path id="path31" d="M-.211-4.106 6.21-.894a1 1 90 0 1 0 1.788L-.21 4.106A1.236 1.236 31.717 0 1-2 3v-6A1.236 1.236 148.283 0 1-.211-4.106z" style="fill:context-stroke;fill-rule:evenodd;stroke:none" transform="scale(.7)"/></marker><marker id="RoundedArrow" markerHeight=".6" markerWidth=".8" orient="auto-start-reverse" preserveAspectRatio="none" refX="0" refY="0" style="overflow:visible" viewBox="0 0 1 1"><path id="path29" d="M-.211-4.106 6.21-.894a1 1 90 0 1 0 1.788L-.21 4.106A1.236 1.236 31.717 0 1-2 3v-6A1.236 1.236 148.283 0 1-.211-4.106z" style="fill:context-stroke;fill-rule:evenodd;stroke:none" transform="scale(.7)"/></marker></defs><g id="layer2" style="display:inline"><g id="layer3"><path id="rect1" d="M11.45 1.45h498.6v224.1H11.45z" style="opacity:1;fill:#f4f8fc;fill-opacity:1;stroke:#bfbfbf;stroke-width:.900001;stroke-linecap:round;stroke-linejoin:round;stroke-dasharray:none;stroke-opacity:1;paint-order:markers fill stroke"/><path id="rect2" d="M11.45 227.195h498.6v57.1H11.45z" style="opacity:1;fill:#f2f2f2;fill-opacity:1;stroke:#bfbfbf;stroke-width:.900002;stroke-linecap:round;stroke-linejoin:round;stroke-dasharray:none;stroke-opacity:1;paint-order:markers fill stroke"/><text xml:space="preserve" id="text4" x="-264.762" y="9.364" style="font-size:5.39765px;line-height:1.25;font-family:sans-serif;stroke-width:.264583" transform="rotate(-90)"><tspan id="tspan4" x="-264.762" y="9.364" style="font-style:normal;font-variant:normal;font-weight:400;font-stretch:normal;font-size:5.39765px;font-family:Arial;-inkscape-font-specification:Arial;fill:#7f7f7f;fill-opacity:1;stroke-width:.264583">Result</tspan></text><text xml:space="preserve" id="text5" x="-133.566" y="9.364" style="font-size:5.398px;line-height:1.25;font-family:sans-serif;stroke-width:.264583" transform="rotate(-90)"><tspan id="tspan5" x="-133.566" y="9.364" style="font-style:normal;font-variant:normal;font-weight:400;font-stretch:normal;font-size:5.398px;font-family:Arial;-inkscape-font-specification:Arial;fill:#7f7f7f;fill-opacity:1;stroke-width:.264583">Decision tree</tspan></text></g><g id="layer4"><g id="layer5" style="display:inline"><g id="layer9" style="display:inline"><ellipse id="path8" cx="237.75" cy="30.5" rx="28.8" ry="11.05" style="opacity:1;fill:#fff;fill-opacity:1;stroke:#4472c4;stroke-width:.899999;stroke-linecap:round;stroke-linejoin:round;stroke-dasharray:none;stroke-opacity:1;paint-order:markers fill stroke"/><ellipse id="ellipse8" cx="237.75" cy="80.75" rx="38.55" ry="10.3" style="opacity:1;fill:#fff;fill-opacity:1;stroke:#4472c4;stroke-width:.899999;stroke-linecap:round;stroke-linejoin:round;stroke-dasharray:none;stroke-opacity:1;paint-order:markers fill stroke"/><ellipse id="ellipse9" cx="398.25" cy="116.75" rx="28.8" ry="10.3" style="display:inline;opacity:1;fill:#fff;fill-opacity:1;stroke:#4472c4;stroke-width:.899999;stroke-linecap:round;stroke-linejoin:round;stroke-dasharray:none;stroke-opacity:1;paint-order:markers fill stroke"/><ellipse id="ellipse11" cx="137.75" cy="141.75" rx="28.8" ry="10.3" style="display:inline;opacity:1;fill:#fff;fill-opacity:1;stroke:#4472c4;stroke-width:.899999;stroke-linecap:round;stroke-linejoin:round;stroke-dasharray:none;stroke-opacity:1;paint-order:markers fill stroke"/><ellipse id="ellipse26" cx="297.25" cy="141.75" rx="28.8" ry="10.3" style="display:inline;opacity:1;fill:#fff;fill-opacity:1;stroke:#4472c4;stroke-width:.899999;stroke-linecap:round;stroke-linejoin:round;stroke-dasharray:none;stroke-opacity:1;paint-order:markers fill stroke"/><ellipse id="ellipse12" cx="96" cy="180" rx="38.55" ry="13.55" style="opacity:1;fill:#fff;fill-opacity:1;stroke:#4472c4;stroke-width:.899999;stroke-linecap:round;stroke-linejoin:round;stroke-dasharray:none;stroke-opacity:1;paint-order:markers fill stroke"/><ellipse id="ellipse13" cx="177.5" cy="180" rx="38.55" ry="13.55" style="opacity:1;fill:#fff;fill-opacity:1;stroke:#4472c4;stroke-width:.899999;stroke-linecap:round;stroke-linejoin:round;stroke-dasharray:none;stroke-opacity:1;paint-order:markers fill stroke"/></g><g id="layer8-2" style="display:inline"><text xml:space="preserve" id="text13" x="237.762" y="28.825" style="font-size:4.49792px;line-height:1.25;font-family:sans-serif;display:inline;stroke-width:.264583"><tspan id="tspan13" x="237.762" y="28.825" style="font-style:normal;font-variant:normal;font-weight:400;font-stretch:normal;font-size:4.49792px;line-height:1.25;font-family:Arial;-inkscape-font-specification:Arial;text-align:center;baseline-shift:baseline;text-anchor:middle;stroke-width:.264583">avalanche</tspan><tspan id="tspan1" x="237.762" y="34.448" style="font-style:normal;font-variant:normal;font-weight:400;font-stretch:normal;font-size:4.49792px;line-height:1.25;font-family:Arial;-inkscape-font-specification:Arial;text-align:center;baseline-shift:baseline;text-anchor:middle;stroke-width:.264583">type</tspan></text><text xml:space="preserve" id="text16" x="237.665" y="79.549" style="font-size:4.49792px;line-height:1.25;font-family:sans-serif;display:inline;stroke-width:.264583"><tspan id="tspan18" x="237.665" y="79.549" style="font-style:normal;font-variant:normal;font-weight:400;font-stretch:normal;font-size:4.49792px;line-height:1.25;font-family:Arial;-inkscape-font-specification:Arial;text-align:center;baseline-shift:baseline;text-anchor:middle;stroke-width:.264583">grain type</tspan><tspan id="tspan7" x="237.665" y="85.171" style="font-style:normal;font-variant:normal;font-weight:400;font-stretch:normal;font-size:4.49792px;line-height:1.25;font-family:Arial;-inkscape-font-specification:Arial;text-align:center;baseline-shift:baseline;text-anchor:middle;stroke-width:.264583">slab</tspan></text><text xml:space="preserve" id="text19" x="137.665" y="140.549" style="font-size:4.49794px;line-height:1.25;font-family:sans-serif;display:inline;stroke-width:.264583"><tspan id="tspan19" x="137.665" y="140.549" style="font-style:normal;font-variant:normal;font-weight:400;font-stretch:normal;font-size:4.49794px;line-height:1.25;font-family:Arial;-inkscape-font-specification:Arial;text-align:center;baseline-shift:baseline;text-anchor:middle;stroke-width:.264583">weak layer</tspan><tspan id="tspan8" x="137.665" y="146.171" style="font-style:normal;font-variant:normal;font-weight:400;font-stretch:normal;font-size:4.49794px;line-height:1.25;font-family:Arial;-inkscape-font-specification:Arial;text-align:center;baseline-shift:baseline;text-anchor:middle;stroke-width:.264583">type</tspan></text><text xml:space="preserve" id="text28" x="297.165" y="140.549" style="font-size:4.49794px;line-height:1.25;font-family:sans-serif;display:inline;stroke-width:.264583"><tspan id="tspan24" x="297.165" y="140.549" style="font-style:normal;font-variant:normal;font-weight:400;font-stretch:normal;font-size:4.49794px;line-height:1.25;font-family:Arial;-inkscape-font-specification:Arial;text-align:center;baseline-shift:baseline;text-anchor:middle;stroke-width:.264583">weak layer</tspan><tspan id="tspan20" x="297.165" y="146.171" style="font-style:normal;font-variant:normal;font-weight:400;font-stretch:normal;font-size:4.49794px;line-height:1.25;font-family:Arial;-inkscape-font-specification:Arial;text-align:center;baseline-shift:baseline;text-anchor:middle;stroke-width:.264583">type</tspan></text><text xml:space="preserve" id="text14" x="398.179" y="115.55" style="font-size:4.49792px;line-height:1.25;font-family:sans-serif;display:inline;stroke-width:.264583"><tspan id="tspan25" x="398.179" y="115.55" style="font-style:normal;font-variant:normal;font-weight:400;font-stretch:normal;font-size:4.49792px;line-height:1.25;font-family:Arial;-inkscape-font-specification:Arial;text-align:center;baseline-shift:baseline;text-anchor:middle;stroke-width:.264583">grain type</tspan><tspan id="tspan21" x="398.179" y="121.172" style="font-style:normal;font-variant:normal;font-weight:400;font-stretch:normal;font-size:4.49792px;line-height:1.25;font-family:Arial;-inkscape-font-specification:Arial;text-align:center;baseline-shift:baseline;text-anchor:middle;stroke-width:.264583">loose snow</tspan></text><text xml:space="preserve" id="text18" x="96.035" y="178.8" style="font-size:4.49792px;line-height:1.25;font-family:sans-serif;display:inline;stroke-width:.264583"><tspan id="tspan10" x="96.035" y="178.8" style="font-style:normal;font-variant:normal;font-weight:400;font-stretch:normal;font-size:4.49792px;line-height:1.25;font-family:Arial;-inkscape-font-specification:Arial;text-align:center;baseline-shift:baseline;text-anchor:middle;stroke-width:.264583">problem locations</tspan><tspan id="tspan15" x="96.035" y="184.422" style="font-style:normal;font-variant:normal;font-weight:400;font-stretch:normal;font-size:4.49792px;line-height:1.25;font-family:Arial;-inkscape-font-specification:Arial;text-align:center;baseline-shift:baseline;text-anchor:middle;stroke-width:.264583">identifiable?</tspan></text><text xml:space="preserve" id="text17" x="177.439" y="178.772" style="font-size:4.49792px;line-height:1.25;font-family:sans-serif;display:inline;stroke-width:.264583"><tspan id="tspan23" x="177.439" y="178.772" style="font-style:normal;font-variant:normal;font-weight:400;font-stretch:normal;font-size:4.49792px;line-height:1.25;font-family:Arial;-inkscape-font-specification:Arial;text-align:center;baseline-shift:baseline;text-anchor:middle;stroke-width:.264583">problem locations</tspan><tspan id="tspan16" x="177.439" y="184.395" style="font-style:normal;font-variant:normal;font-weight:400;font-stretch:normal;font-size:4.49792px;line-height:1.25;font-family:Arial;-inkscape-font-specification:Arial;text-align:center;baseline-shift:baseline;text-anchor:middle;stroke-width:.264583">identifiable?</tspan></text></g></g><g id="layer6" style="display:inline"><g id="layer7" style="display:inline"><path id="path28" d="M237.75 4.34v9.289" style="opacity:1;fill:none;fill-opacity:1;stroke:#4472c4;stroke-width:.899999;stroke-linecap:round;stroke-linejoin:bevel;stroke-dasharray:none;stroke-opacity:1;marker-end:url(#marker31);paint-order:normal"/><path id="path30" d="M237.75 41.55v24.952" style="display:inline;opacity:1;fill:none;fill-opacity:1;stroke:#4472c4;stroke-width:.899999;stroke-linecap:round;stroke-linejoin:bevel;stroke-dasharray:none;stroke-opacity:1;marker-end:url(#RoundedArrow);paint-order:normal"/><path id="path42" d="m208.95 30.5-172.825.01V235.5" style="opacity:1;fill:none;fill-opacity:1;stroke:#4472c4;stroke-width:.899999;stroke-linecap:round;stroke-linejoin:bevel;stroke-dasharray:none;stroke-opacity:1;marker-end:url(#RoundedArrow);paint-order:normal"/><path id="path43" d="M263.814 35.2H398.25v67.261" style="opacity:1;fill:none;fill-opacity:1;stroke:#4472c4;stroke-width:.89122;stroke-linecap:round;stroke-linejoin:bevel;stroke-dasharray:none;stroke-opacity:1;marker-end:url(#RoundedArrow);paint-order:normal"/><path id="path44" d="M199.2 80.75h-61.45v46.618" style="opacity:1;fill:none;fill-opacity:1;stroke:#4472c4;stroke-width:.89122;stroke-linecap:round;stroke-linejoin:bevel;stroke-dasharray:none;stroke-opacity:1;marker-end:url(#RoundedArrow);paint-order:normal"/><path id="path45" d="M108.95 141.75H96v20.485" style="opacity:1;fill:none;fill-opacity:1;stroke:#4472c4;stroke-width:.89122;stroke-linecap:round;stroke-linejoin:bevel;stroke-dasharray:none;stroke-opacity:1;marker-end:url(#RoundedArrow);paint-order:normal"/><path id="path46" d="M96 193.55v22.776" style="opacity:1;fill:none;fill-opacity:1;stroke:#4472c4;stroke-width:.89122;stroke-linecap:round;stroke-linejoin:bevel;stroke-dasharray:none;stroke-opacity:1;paint-order:normal"/><path id="path47" d="M78 216.772h36" style="opacity:1;fill:none;fill-opacity:1;stroke:#4472c4;stroke-width:.89122;stroke-linecap:round;stroke-linejoin:bevel;stroke-dasharray:none;stroke-opacity:1;paint-order:normal"/><path id="path48" d="m78 216.772-.006 18.725" style="opacity:1;fill:none;fill-opacity:1;stroke:#4472c4;stroke-width:.89122;stroke-linecap:round;stroke-linejoin:bevel;stroke-dasharray:none;stroke-opacity:1;marker-end:url(#RoundedArrow);paint-order:normal"/><path id="path49" d="M114 216.772V235.5" style="opacity:1;fill:none;fill-opacity:1;stroke:#4472c4;stroke-width:.89122;stroke-linecap:round;stroke-linejoin:bevel;stroke-dasharray:none;stroke-opacity:1;marker-end:url(#RoundedArrow);paint-order:normal"/><path id="path50" d="M177.5 193.55v22.776" style="opacity:1;fill:none;fill-opacity:1;stroke:#4472c4;stroke-width:.89122;stroke-linecap:round;stroke-linejoin:bevel;stroke-dasharray:none;stroke-opacity:1;paint-order:normal"/><path id="path51" d="M159.5 216.772h36" style="opacity:1;fill:none;fill-opacity:1;stroke:#4472c4;stroke-width:.89122;stroke-linecap:round;stroke-linejoin:bevel;stroke-dasharray:none;stroke-opacity:1;paint-order:normal"/><path id="path52" d="M159.5 216.772v18.726" style="opacity:1;fill:none;fill-opacity:1;stroke:#4472c4;stroke-width:.89122;stroke-linecap:round;stroke-linejoin:bevel;stroke-dasharray:none;stroke-opacity:1;marker-end:url(#RoundedArrow);paint-order:normal"/><path id="path53" d="M195.5 216.772v18.726" style="opacity:1;fill:none;fill-opacity:1;stroke:#4472c4;stroke-width:.89122;stroke-linecap:round;stroke-linejoin:bevel;stroke-dasharray:none;stroke-opacity:1;marker-end:url(#RoundedArrow);paint-order:normal"/><path id="path54" d="m237.75 91.05-.375 144.454" style="opacity:1;fill:none;fill-opacity:1;stroke:#4472c4;stroke-width:.89122;stroke-linecap:round;stroke-linejoin:bevel;stroke-dasharray:none;stroke-opacity:1;marker-end:url(#RoundedArrow);paint-order:normal"/><path id="path55" d="M276.3 80.75h20.95v46.518" style="opacity:1;fill:none;fill-opacity:1;stroke:#4472c4;stroke-width:.89122;stroke-linecap:round;stroke-linejoin:bevel;stroke-dasharray:none;stroke-opacity:1;marker-end:url(#RoundedArrow);paint-order:normal"/><path id="path58" d="M279.25 195.95h35.99" style="opacity:1;fill:none;fill-opacity:1;stroke:#4472c4;stroke-width:.89122;stroke-linecap:round;stroke-linejoin:bevel;stroke-dasharray:none;stroke-opacity:1;paint-order:normal"/><path id="path59" d="m297.25 152.05-.005 43.9" style="opacity:1;fill:none;fill-opacity:1;stroke:#4472c4;stroke-width:.89122;stroke-linecap:round;stroke-linejoin:bevel;stroke-dasharray:none;stroke-opacity:1;paint-order:normal"/><path id="path60" d="M398.25 127.05v108.448" style="opacity:1;fill:none;fill-opacity:1;stroke:#4472c4;stroke-width:.89122;stroke-linecap:round;stroke-linejoin:bevel;stroke-dasharray:none;stroke-opacity:1;marker-end:url(#RoundedArrow);paint-order:normal"/><path id="path61" d="M427.05 116.75h7.2v118.748" style="opacity:1;fill:none;fill-opacity:1;stroke:#4472c4;stroke-width:.89122;stroke-linecap:round;stroke-linejoin:bevel;stroke-dasharray:none;stroke-opacity:1;marker-end:url(#RoundedArrow);paint-order:normal"/><path id="path62" d="M369.45 116.747h-7.2v118.751" style="opacity:1;fill:none;fill-opacity:1;stroke:#4472c4;stroke-width:.89122;stroke-linecap:round;stroke-linejoin:bevel;stroke-dasharray:none;stroke-opacity:1;marker-end:url(#RoundedArrow);paint-order:normal"/><path id="path63" d="M279.25 195.95v39.547" style="opacity:1;fill:none;fill-opacity:1;stroke:#4472c4;stroke-width:.89122;stroke-linecap:round;stroke-linejoin:bevel;stroke-dasharray:none;stroke-opacity:1;marker-end:url(#RoundedArrow);paint-order:normal"/><path id="path64" d="m315.24 195.95.01 39.548" style="opacity:1;fill:none;fill-opacity:1;stroke:#4472c4;stroke-width:.89122;stroke-linecap:round;stroke-linejoin:bevel;stroke-dasharray:none;stroke-opacity:1;marker-end:url(#RoundedArrow);paint-order:normal"/><path id="path98" d="M166.55 141.75h10.95v20.552" style="opacity:1;fill:none;fill-opacity:1;stroke:#4472c4;stroke-width:.89122;stroke-linecap:round;stroke-linejoin:bevel;stroke-dasharray:none;stroke-opacity:1;marker-end:url(#RoundedArrow);paint-order:normal"/><path id="path17" d="M263.814 25.641h217.49V235.44" style="opacity:1;fill:none;fill-opacity:1;stroke:#4472c4;stroke-width:.891221;stroke-linecap:round;stroke-linejoin:bevel;stroke-dasharray:none;stroke-opacity:1;marker-end:url(#RoundedArrow);paint-order:normal"/></g><g id="layer8" style="display:inline"><text xml:space="preserve" id="text64" x="109.55" y="27.378" style="font-size:4.49792px;line-height:1.25;font-family:sans-serif;fill:#31538f;fill-opacity:1;stroke-width:.264583"><tspan id="tspan14" x="109.55" y="27.378" style="font-style:normal;font-variant:normal;font-weight:400;font-stretch:normal;font-size:4.49792px;font-family:Arial;-inkscape-font-specification:Arial;fill:#31538f;fill-opacity:1;stroke-width:.264583">glide snow avalanche</tspan></text><text xml:space="preserve" id="text65" x="299.627" y="33.385" style="font-size:4.49792px;line-height:1.25;font-family:sans-serif;fill:#31538f;fill-opacity:1;stroke-width:.264583"><tspan id="tspan65" x="299.627" y="33.385" style="font-style:normal;font-variant:normal;font-weight:400;font-stretch:normal;font-size:4.49792px;font-family:Arial;-inkscape-font-specification:Arial;fill:#31538f;fill-opacity:1;stroke-width:.264583">loose snow avalanche</tspan></text><text xml:space="preserve" id="text66" x="206.328" y="54.582" style="font-size:4.49792px;line-height:1.25;font-family:sans-serif;fill:#31538f;fill-opacity:1;stroke-width:.264583"><tspan id="tspan66" x="206.328" y="54.582" style="font-style:normal;font-variant:normal;font-weight:400;font-stretch:normal;font-size:4.49792px;font-family:Arial;-inkscape-font-specification:Arial;fill:#31538f;fill-opacity:1;stroke-width:.264583">slab avalanche</tspan></text><text xml:space="preserve" id="text70-6" x="274.877" y="104.759" style="font-size:4.49792px;line-height:1.25;font-family:sans-serif;display:inline;fill:#31538f;fill-opacity:1;stroke-width:.264583"><tspan id="tspan70-0" x="274.877" y="104.759" style="font-style:normal;font-variant:normal;font-weight:400;font-stretch:normal;font-size:4.49792px;font-family:Arial;-inkscape-font-specification:Arial;fill:#31538f;fill-opacity:1;stroke-width:.264583">Melt crust</tspan></text><text xml:space="preserve" id="text71" x="72.702" y="156.272" style="font-size:4.49792px;line-height:1.25;font-family:sans-serif;fill:#31538f;fill-opacity:1;stroke-width:.264583"><tspan id="tspan71" x="72.702" y="156.272" style="font-style:normal;font-variant:normal;font-weight:400;font-stretch:normal;font-size:4.49792px;font-family:Arial;-inkscape-font-specification:Arial;fill:#31538f;fill-opacity:1;stroke-width:.264583">persistent</tspan></text><text xml:space="preserve" id="text72" x="180.669" y="156.272" style="font-size:4.49792px;line-height:1.25;font-family:sans-serif;fill:#31538f;fill-opacity:1;stroke-width:.264583"><tspan id="tspan72" x="180.669" y="156.272" style="font-style:normal;font-variant:normal;font-weight:400;font-stretch:normal;font-size:4.49792px;font-family:Arial;-inkscape-font-specification:Arial;fill:#31538f;fill-opacity:1;stroke-width:.264583">non persistent</tspan></text><text xml:space="preserve" id="text93" x="262.712" y="191.098" style="font-size:4.49792px;line-height:1.25;font-family:sans-serif;fill:#31538f;fill-opacity:1;stroke-width:.264583"><tspan id="tspan93" x="262.712" y="191.098" style="font-style:normal;font-variant:normal;font-weight:400;font-stretch:normal;font-size:4.49792px;font-family:Arial;-inkscape-font-specification:Arial;fill:#31538f;fill-opacity:1;stroke-width:.264583">persistent</tspan></text><text xml:space="preserve" id="text94" x="311.243" y="191.098" style="font-size:4.49792px;line-height:1.25;font-family:sans-serif;fill:#31538f;fill-opacity:1;stroke-width:.264583"><tspan id="tspan94" x="311.243" y="191.098" style="font-style:normal;font-variant:normal;font-weight:400;font-stretch:normal;font-size:4.49792px;font-family:Arial;-inkscape-font-specification:Arial;fill:#31538f;fill-opacity:1;stroke-width:.264583">non persistent</tspan></text><text xml:space="preserve" id="text95" x="74.988" y="212.388" style="font-size:4.49792px;line-height:1.25;font-family:sans-serif;fill:#31538f;fill-opacity:1;stroke-width:.264583"><tspan id="tspan95" x="74.988" y="212.388" style="font-style:normal;font-variant:normal;font-weight:400;font-stretch:normal;font-size:4.49792px;font-family:Arial;-inkscape-font-specification:Arial;fill:#31538f;fill-opacity:1;stroke-width:.264583">no</tspan></text><text xml:space="preserve" id="text96" x="110.996" y="211.941" style="font-size:4.49792px;line-height:1.25;font-family:sans-serif;fill:#31538f;fill-opacity:1;stroke-width:.264583"><tspan id="tspan96" x="110.996" y="211.941" style="font-style:normal;font-variant:normal;font-weight:400;font-stretch:normal;font-size:4.49792px;font-family:Arial;-inkscape-font-specification:Arial;fill:#31538f;fill-opacity:1;stroke-width:.264583">yes</tspan></text><text xml:space="preserve" id="text97" x="156.488" y="212.388" style="font-size:4.49792px;line-height:1.25;font-family:sans-serif;fill:#31538f;fill-opacity:1;stroke-width:.264583"><tspan id="tspan97" x="156.488" y="212.388" style="font-style:normal;font-variant:normal;font-weight:400;font-stretch:normal;font-size:4.49792px;font-family:Arial;-inkscape-font-specification:Arial;fill:#31538f;fill-opacity:1;stroke-width:.264583">no</tspan></text><text xml:space="preserve" id="text98" x="192.496" y="211.941" style="font-size:4.49792px;line-height:1.25;font-family:sans-serif;fill:#31538f;fill-opacity:1;stroke-width:.264583"><tspan id="tspan98" x="192.496" y="211.941" style="font-style:normal;font-variant:normal;font-weight:400;font-stretch:normal;font-size:4.49792px;font-family:Arial;-inkscape-font-specification:Arial;fill:#31538f;fill-opacity:1;stroke-width:.264583">yes</tspan></text><text xml:space="preserve" id="text27" x="299.627" y="22.956" style="font-size:4.49792px;line-height:1.25;font-family:sans-serif;fill:#31538f;fill-opacity:1;stroke-width:.264583"><tspan id="tspan27" x="299.627" y="22.956" style="font-style:normal;font-variant:normal;font-weight:400;font-stretch:normal;font-size:4.49792px;font-family:Arial;-inkscape-font-specification:Arial;fill:#31538f;fill-opacity:1;stroke-width:.264583">cornice</tspan></text><text xml:space="preserve" id="text76" x="355.608" y="157.675" style="font-size:4.49792px;line-height:1.25;font-family:sans-serif;display:inline;fill:#31538f;fill-opacity:1;stroke-width:.264583"><tspan id="tspan77" x="355.608" y="157.675" style="font-style:normal;font-variant:normal;font-weight:400;font-stretch:normal;font-size:4.49792px;font-family:Arial;-inkscape-font-specification:Arial;text-align:end;text-anchor:end;fill:#31538f;fill-opacity:1;stroke-width:.264583">Precipitation particles</tspan><tspan id="tspan28" x="355.608" y="163.298" style="font-style:normal;font-variant:normal;font-weight:400;font-stretch:normal;font-size:4.49792px;font-family:Arial;-inkscape-font-specification:Arial;text-align:end;text-anchor:end;fill:#31538f;fill-opacity:1;stroke-width:.264583">Decomposed fragments</tspan></text><text xml:space="preserve" id="text79" x="391.522" y="157.594" style="font-size:4.49792px;line-height:1.25;font-family:sans-serif;display:inline;fill:#31538f;fill-opacity:1;stroke-width:.264583"><tspan id="tspan80" x="391.522" y="157.594" style="font-style:normal;font-variant:normal;font-weight:400;font-stretch:normal;font-size:4.49792px;font-family:Arial;-inkscape-font-specification:Arial;text-align:end;text-anchor:end;fill:#31538f;fill-opacity:1;stroke-width:.264583">Faceted</tspan><tspan id="tspan6" x="391.522" y="163.216" style="font-style:normal;font-variant:normal;font-weight:400;font-stretch:normal;font-size:4.49792px;font-family:Arial;-inkscape-font-specification:Arial;text-align:end;text-anchor:end;fill:#31538f;fill-opacity:1;stroke-width:.264583">crystals</tspan><tspan id="tspan9" x="391.522" y="168.838" style="font-style:normal;font-variant:normal;font-weight:400;font-stretch:normal;font-size:4.49792px;font-family:Arial;-inkscape-font-specification:Arial;text-align:end;text-anchor:end;fill:#31538f;fill-opacity:1;stroke-width:.264583">Surface hoar</tspan><tspan id="tspan83" x="391.522" y="174.461" style="font-style:normal;font-variant:normal;font-weight:400;font-stretch:normal;font-size:4.49792px;font-family:Arial;-inkscape-font-specification:Arial;text-align:end;text-anchor:end;fill:#31538f;fill-opacity:1;stroke-width:.264583">Depth hoar</tspan></text><text xml:space="preserve" id="text88" x="428.041" y="157.988" style="font-size:4.49792px;line-height:1.25;font-family:sans-serif;display:inline;fill:#31538f;fill-opacity:1;stroke-width:.264583"><tspan id="tspan92" x="428.041" y="157.988" style="font-style:normal;font-variant:normal;font-weight:400;font-stretch:normal;font-size:4.49792px;font-family:Arial;-inkscape-font-specification:Arial;text-align:end;text-anchor:end;fill:#31538f;fill-opacity:1;stroke-width:.264583">Melt forms</tspan></text><text xml:space="preserve" id="text73-9" x="244.844" y="163.851" style="font-size:4.49792px;line-height:1.25;font-family:sans-serif;display:inline;fill:#31538f;fill-opacity:1;stroke-width:.264583"><tspan id="tspan74-2" x="244.844" y="163.851" style="font-style:normal;font-variant:normal;font-weight:400;font-stretch:normal;font-size:4.49792px;font-family:Arial;-inkscape-font-specification:Arial;fill:#31538f;fill-opacity:1;stroke-width:.264583">Melt forms</tspan></text><text xml:space="preserve" id="text67-5" x="145.031" y="98.461" style="font-size:4.49792px;line-height:1.25;font-family:sans-serif;display:inline;fill:#31538f;fill-opacity:1;stroke-width:.264583"><tspan id="tspan17-3" x="145.031" y="98.461" style="font-style:normal;font-variant:normal;font-weight:400;font-stretch:normal;font-size:4.49792px;font-family:Arial;-inkscape-font-specification:Arial;fill:#31538f;fill-opacity:1;stroke-width:.264583">Precipitation particles</tspan><tspan id="tspan1-6" x="145.031" y="104.084" style="font-style:normal;font-variant:normal;font-weight:400;font-stretch:normal;font-size:4.49792px;font-family:Arial;-inkscape-font-specification:Arial;fill:#31538f;fill-opacity:1;stroke-width:.264583">Decomposed fragments</tspan><tspan id="tspan7-9" x="145.031" y="109.706" style="font-style:normal;font-variant:normal;font-weight:400;font-stretch:normal;font-size:4.49792px;font-family:Arial;-inkscape-font-specification:Arial;fill:#31538f;fill-opacity:1;stroke-width:.264583">Rounded grains</tspan><tspan id="tspan8-2" x="145.031" y="115.329" style="font-style:normal;font-variant:normal;font-weight:400;font-stretch:normal;font-size:4.49792px;font-family:Arial;-inkscape-font-specification:Arial;fill:#31538f;fill-opacity:1;stroke-width:.264583">Faceted crystals</tspan></text><g id="text42" aria-label="a cd e" style="font-size:4.49792px;line-height:1.25;fill:#31538f;stroke-width:.264583"><path id="path70" d="M140.801 97.061v-.323h1.008V95.73h.323v1.008h1.004v.323h-1.004v1.004h-.323v-1.004z" style="font-family:SnowSymbolsIACS;-inkscape-font-specification:SnowSymbolsIACS"/><path id="path71" d="m140.643 103.68 2.429-2.331.226.233-2.429 2.33z" style="font-family:SnowSymbolsIACS;-inkscape-font-specification:SnowSymbolsIACS"/><path id="path72" d="M140.985 108.362q0-.202.077-.382t.211-.314q.136-.136.314-.213.18-.077.385-.077.202 0 .377.077.178.077.312.213.136.134.213.314.077.178.077.382 0 .202-.077.38t-.213.312q-.134.134-.312.21-.175.078-.377.078t-.383-.077q-.18-.077-.316-.211-.134-.134-.21-.312-.078-.178-.078-.38z" style="font-family:SnowSymbolsIACS;-inkscape-font-specification:SnowSymbolsIACS"/><path id="path73" d="M140.801 115.257v-2.335h2.335v2.335zm.33-.323h1.682v-1.682h-1.683z" style="font-family:SnowSymbolsIACS;-inkscape-font-specification:SnowSymbolsIACS"/></g><path id="text44" d="M265.698 103.177q0-.477.18-.894.18-.42.492-.731.314-.314.731-.495.418-.18.896-.18.262 0 .512.062.253.06.479.173.228.112.426.266.198.152.354.34.158-.188.355-.34.198-.154.424-.266.229-.114.477-.173.25-.062.516-.062.476 0 .894.18.42.18.731.495.314.311.494.729.18.417.18.896 0 .476-.18.896-.18.417-.494.73-.312.31-.731.491-.418.18-.894.18-.266 0-.516-.061-.248-.06-.477-.172-.226-.11-.424-.265-.197-.154-.355-.343-.159.189-.356.343-.196.156-.424.265-.226.112-.479.172-.252.061-.512.061-.476 0-.896-.18-.417-.18-.731-.492-.312-.312-.492-.73-.18-.419-.18-.895zm.323 0q0 .408.156.769.156.36.421.625.268.268.628.424.36.156.771.156.257 0 .503-.077.248-.077.475-.22.226-.14.428-.34.204-.2.365-.443.162.243.362.443.2.2.428.34.23.144.479.22.248.077.503.077.408 0 .766-.156.358-.156.626-.424.268-.265.422-.625.156-.36.156-.77 0-.408-.156-.766-.154-.358-.422-.626t-.626-.421q-.358-.156-.766-.156-.257 0-.505.077-.246.074-.477.215-.228.138-.428.338-.2.2-.362.444-.163-.244-.365-.444-.202-.2-.428-.338-.227-.14-.475-.215-.248-.077-.503-.077-.408 0-.77.156-.36.154-.629.421-.265.268-.421.626-.156.356-.156.767zm.757 0q0-.253.095-.475.094-.224.259-.386.167-.165.389-.261.224-.097.476-.097.253 0 .475.097.222.096.384.26.165.163.261.387.1.222.1.475 0 .252-.1.474-.096.222-.261.387-.162.165-.386.261-.222.097-.473.097-.252 0-.476-.097-.222-.096-.389-.261-.165-.165-.26-.387-.094-.222-.094-.474zm.323 0q0 .184.068.347.07.16.191.283.123.121.288.191.165.068.35.068.184 0 .344-.068.163-.07.284-.19.122-.124.19-.284.07-.163.07-.347 0-.185-.07-.35-.068-.164-.19-.285-.121-.12-.284-.19-.162-.071-.345-.071-.184 0-.349.07-.165.07-.288.191-.12.12-.19.286-.069.164-.069.349zm3.224 0q0-.253.095-.475.094-.224.259-.386.167-.165.389-.261.224-.097.476-.097.253 0 .475.097.221.096.384.26.165.163.261.387.1.222.1.475 0 .252-.1.474-.096.222-.261.387-.163.165-.387.261-.221.097-.472.097-.252 0-.476-.097-.222-.096-.39-.261-.164-.165-.258-.387-.095-.222-.095-.474zm.323 0q0 .184.068.347.07.16.191.283.123.121.288.191.165.068.35.068.184 0 .344-.068.163-.07.283-.19.123-.124.191-.284.07-.163.07-.347 0-.185-.07-.35-.068-.164-.19-.285-.121-.12-.284-.19-.162-.071-.345-.071-.184 0-.349.07-.165.07-.288.191-.12.12-.19.286-.069.164-.069.349z" aria-label="Oh" style="font-size:4.49792px;line-height:1.25;font-family:SnowSymbolsIACS;-inkscape-font-specification:SnowSymbolsIACS;fill:#31538f;stroke-width:.264583"/><path id="text46" d="M240.706 162.24q0-.252.094-.474.094-.224.26-.387.166-.164.388-.261.224-.097.476-.097.253 0 .475.097.222.097.384.261.165.163.262.387.098.222.098.474 0 .253-.098.475-.097.221-.262.386-.162.165-.386.262-.222.096-.473.096-.252 0-.476-.096-.222-.097-.389-.262-.165-.165-.259-.386-.094-.222-.094-.475zm.322 0q0 .185.069.347.07.16.19.284.124.12.288.19.165.069.35.069.184 0 .344-.068.163-.07.284-.191.123-.123.19-.284.071-.162.071-.347 0-.184-.07-.349-.068-.165-.191-.285-.121-.121-.284-.192-.162-.07-.345-.07-.184 0-.349.07-.164.07-.287.192-.121.12-.192.285-.068.165-.068.35z" aria-label="h" style="font-size:4.49792px;line-height:1.25;font-family:SnowSymbolsIACS;-inkscape-font-specification:SnowSymbolsIACS;fill:#31538f;stroke-width:.264583"/><g id="text50" aria-label="a c" style="font-size:4.49792px;line-height:1.25;fill:#31538f;stroke-width:.264583"><path id="path68" d="M356.88 156.59v-.323h1.008v-1.008h.323v1.008h1.004v.323h-1.004v1.004h-.323v-1.004Z" style="font-family:SnowSymbolsIACS;-inkscape-font-specification:SnowSymbolsIACS"/><path id="path69" d="m356.722 163.208 2.429-2.33.226.232-2.429 2.33z" style="font-family:SnowSymbolsIACS;-inkscape-font-specification:SnowSymbolsIACS"/></g><g id="text57" aria-label="e gf" style="font-size:4.49792px;line-height:1.25;fill:#31538f;stroke-width:.264583"><path id="path65" d="M393.364 162.987v-2.334h2.334v2.334zm.33-.323h1.682v-1.682h-1.683z" style="font-family:SnowSymbolsIACS;-inkscape-font-specification:SnowSymbolsIACS;text-align:end;text-anchor:end"/><path id="path66" d="m393.111 166.469.28-.167 1.143 1.979 1.138-1.979.279.167-1.417 2.464z" style="font-family:SnowSymbolsIACS;-inkscape-font-specification:SnowSymbolsIACS;text-align:end;text-anchor:end"/><path id="path67" d="m393.111 174.367 1.423-2.464 1.417 2.464-.279.163-1.138-1.975-1.144 1.975z" style="font-family:SnowSymbolsIACS;-inkscape-font-specification:SnowSymbolsIACS;text-align:end;text-anchor:end"/></g><path id="text61" d="M428.945 156.377q0-.253.094-.474.095-.224.26-.387.167-.165.388-.261.224-.097.477-.097.252 0 .474.097.222.096.385.261.164.163.261.387.099.221.099.474t-.099.474q-.097.222-.261.387-.163.165-.387.261-.222.097-.472.097-.253 0-.477-.097-.221-.096-.388-.261-.165-.165-.26-.387-.094-.221-.094-.474zm.323 0q0 .184.068.347.07.16.191.283.123.121.288.191.164.068.349.068.184 0 .345-.068.162-.07.283-.19.123-.124.191-.284.07-.163.07-.347 0-.185-.07-.35-.068-.164-.19-.285-.122-.12-.284-.19-.163-.071-.345-.071-.185 0-.35.07-.164.07-.287.191-.12.121-.191.286-.068.164-.068.349z" aria-label="h" style="font-size:4.49792px;line-height:1.25;font-family:SnowSymbolsIACS;-inkscape-font-specification:SnowSymbolsIACS;fill:#31538f;stroke-width:.264583"/></g></g></g><g id="layer10"><g id="layer11" style="display:inline"><image xlink:href="Wet_snow_c.svg" id="image1-55" width="32" height="32" x="418.25" y="240" preserveAspectRatio="none" style="display:inline;stroke-width:2.48047"/><path id="rect41" d="M382.45 240.45h31.1v31.1h-31.1z" style="display:inline;opacity:1;fill:#f2f2f2;fill-opacity:1;stroke:#000;stroke-width:.899999;stroke-linecap:round;stroke-linejoin:bevel;stroke-dasharray:none;stroke-opacity:1;paint-order:normal"/><image xlink:href="New_snow_c.svg" id="image109" width="32" height="32" x="346.25" y="240" preserveAspectRatio="none" style="display:inline;stroke-width:2.48047"/><image xlink:href="Wet_snow_c.svg" id="image112" width="32" height="32" x="299.25" y="240" preserveAspectRatio="none" style="display:inline;stroke-width:2.48047"/><image xlink:href="Persistent_weak_layers_c.svg" id="image111" width="32" height="32" x="263.25" y="240" preserveAspectRatio="none" style="display:inline;stroke-width:2.48047"/><image xlink:href="Wet_snow_c.svg" id="image113" width="32" height="32" x="221.375" y="240" preserveAspectRatio="none" style="display:inline;stroke-width:2.48047"/><image xlink:href="Drifting_snow_c.svg" id="image1-1" width="32" height="32" x="179.5" y="240" preserveAspectRatio="none" style="display:inline;stroke-width:2.48047"/><image xlink:href="New_snow_c.svg" id="image1-5" width="32" height="32" x="143.5" y="240" preserveAspectRatio="none" style="display:inline;stroke-width:2.48047"/><image xlink:href="Drifting_snow_c.svg" id="image110" width="32" height="32" x="98" y="240" preserveAspectRatio="none" style="display:inline;stroke-width:2.48047"/><image xlink:href="Persistent_weak_layers_c.svg" id="image1-2" width="32" height="32" x="62" y="240" preserveAspectRatio="none" style="display:inline;stroke-width:2.48047"/><image xlink:href="Gliding_snow_c.svg" id="image1-56" width="32" height="32" x="20.125" y="240" preserveAspectRatio="none" style="display:inline;fill:none;stroke:none;stroke-width:2.48047"/><image xlink:href="Cornices_c.svg" id="image1" width="32" height="32" x="465.25" y="240" preserveAspectRatio="none" style="stroke-width:4.96095"/></g><g id="layer12" style="display:inline"><text xml:space="preserve" id="text99" x="19.886" y="276.784" style="font-size:4.49792px;line-height:1.25;font-family:sans-serif;display:inline;stroke-width:.264583"><tspan id="tspan99" x="19.886" y="276.784" style="font-style:normal;font-variant:normal;font-weight:400;font-stretch:normal;font-size:4.49792px;font-family:Arial;-inkscape-font-specification:Arial;stroke-width:.264583">Glide snow</tspan></text><text xml:space="preserve" id="text100" x="61.761" y="276.784" style="font-size:4.49792px;line-height:1.25;font-family:sans-serif;display:inline;stroke-width:.264583"><tspan id="tspan2" x="61.761" y="276.784" style="font-style:normal;font-variant:normal;font-weight:400;font-stretch:normal;font-size:4.49792px;font-family:Arial;-inkscape-font-specification:Arial;stroke-width:.264583">Persistent</tspan><tspan id="tspan11" x="61.761" y="282.406" style="font-style:normal;font-variant:normal;font-weight:400;font-stretch:normal;font-size:4.49792px;font-family:Arial;-inkscape-font-specification:Arial;stroke-width:.264583">weak layer</tspan></text><text xml:space="preserve" id="text101" x="97.761" y="276.784" style="font-size:4.49792px;line-height:1.25;font-family:sans-serif;display:inline;stroke-width:.264583"><tspan id="tspan101" x="97.761" y="276.784" style="font-style:normal;font-variant:normal;font-weight:400;font-stretch:normal;font-size:4.49792px;font-family:Arial;-inkscape-font-specification:Arial;stroke-width:.264583">Wind slab</tspan></text><text xml:space="preserve" id="text102" x="143.261" y="276.784" style="font-size:4.49792px;line-height:1.25;font-family:sans-serif;display:inline;stroke-width:.264583"><tspan id="tspan102" x="143.261" y="276.784" style="font-style:normal;font-variant:normal;font-weight:400;font-stretch:normal;font-size:4.49792px;font-family:Arial;-inkscape-font-specification:Arial;stroke-width:.264583">New snow</tspan></text><text xml:space="preserve" id="text103" x="179.261" y="276.784" style="font-size:4.49792px;line-height:1.25;font-family:sans-serif;display:inline;stroke-width:.264583"><tspan id="tspan103" x="179.261" y="276.784" style="font-style:normal;font-variant:normal;font-weight:400;font-stretch:normal;font-size:4.49792px;font-family:Arial;-inkscape-font-specification:Arial;stroke-width:.264583">Wind slab</tspan></text><text xml:space="preserve" id="text104" x="221.136" y="276.784" style="font-size:4.49792px;line-height:1.25;font-family:sans-serif;display:inline;stroke-width:.264583"><tspan id="tspan104" x="221.136" y="276.784" style="font-style:normal;font-variant:normal;font-weight:400;font-stretch:normal;font-size:4.49792px;font-family:Arial;-inkscape-font-specification:Arial;stroke-width:.264583">Wet snow</tspan></text><text xml:space="preserve" id="text105" x="263.011" y="276.784" style="font-size:4.49792px;line-height:1.25;font-family:sans-serif;display:inline;stroke-width:.264583"><tspan id="tspan105" x="263.011" y="276.784" style="font-style:normal;font-variant:normal;font-weight:400;font-stretch:normal;font-size:4.49792px;font-family:Arial;-inkscape-font-specification:Arial;stroke-width:.264583">Persistent</tspan><tspan id="tspan17" x="263.011" y="282.406" style="font-style:normal;font-variant:normal;font-weight:400;font-stretch:normal;font-size:4.49792px;font-family:Arial;-inkscape-font-specification:Arial;stroke-width:.264583">weak layer</tspan></text><text xml:space="preserve" id="text106" x="299.011" y="276.784" style="font-size:4.49792px;line-height:1.25;font-family:sans-serif;display:inline;stroke-width:.264583"><tspan id="tspan106" x="299.011" y="276.784" style="font-style:normal;font-variant:normal;font-weight:400;font-stretch:normal;font-size:4.49792px;font-family:Arial;-inkscape-font-specification:Arial;stroke-width:.264583">Wet snow</tspan></text><text xml:space="preserve" id="text107" x="346.011" y="276.784" style="font-size:4.49792px;line-height:1.25;font-family:sans-serif;display:inline;stroke-width:.264583"><tspan id="tspan107" x="346.011" y="276.784" style="font-style:normal;font-variant:normal;font-weight:400;font-stretch:normal;font-size:4.49792px;font-family:Arial;-inkscape-font-specification:Arial;stroke-width:.264583">New snow</tspan></text><text xml:space="preserve" id="text109" x="418.011" y="276.784" style="font-size:4.49792px;line-height:1.25;font-family:sans-serif;display:inline;stroke-width:.264583"><tspan id="tspan109" x="418.011" y="276.784" style="font-style:normal;font-variant:normal;font-weight:400;font-stretch:normal;font-size:4.49792px;font-family:Arial;-inkscape-font-specification:Arial;stroke-width:.264583">Wet snow</tspan></text><text xml:space="preserve" id="text113" x="397.979" y="254.556" style="font-size:5.29167px;line-height:1.25;font-family:sans-serif;text-align:center;text-anchor:middle;display:inline;stroke-width:.264583"><tspan id="tspan114" x="397.979" y="254.556" style="font-style:normal;font-variant:normal;font-weight:700;font-stretch:normal;font-size:5.29167px;font-family:Arial;-inkscape-font-specification:Arial;text-align:center;text-anchor:middle;stroke-width:.264583">no</tspan><tspan id="tspan3" x="397.979" y="261.17" style="font-style:normal;font-variant:normal;font-weight:700;font-stretch:normal;font-size:5.29167px;font-family:Arial;-inkscape-font-specification:Arial;text-align:center;text-anchor:middle;stroke-width:.264583">problem</tspan></text><text xml:space="preserve" id="text26" x="465.01" y="276.784" style="font-size:4.49792px;line-height:1.25;font-family:sans-serif;display:inline;stroke-width:.264583"><tspan id="tspan26" x="465.01" y="276.784" style="font-style:normal;font-variant:normal;font-weight:400;font-stretch:normal;font-size:4.49792px;font-family:Arial;-inkscape-font-specification:Arial;stroke-width:.264583">Cornice</tspan></text></g></g></g></svg>