<svg xmlns="http://www.w3.org/2000/svg" xml:space="preserve" width="113.39" height="113.39"><g id="Layer_1" fill-rule="evenodd" clip-rule="evenodd"><path fill="#FFF" d="M.377 88.296c0-29.023.003-58.047-.018-87.071 0-.708.159-.867.867-.867 37.167.02 74.335.02 111.503 0 .707 0 .87.159.867.867-.03 7.138-.019 14.276-.019 21.414-.292.542-.746.885-1.277 1.194-11.549 6.709-23.093 13.425-34.639 20.14-8.148 4.739-16.286 9.498-24.436 14.236-10.649 6.192-21.296 12.39-31.947 18.579-6.194 3.6-12.4 7.181-18.566 10.831-.433.256-.888.471-1.318.734-.343.211-.697.307-1.017-.057zm113.201-49.054v21.697c-.767 1.22-2.117 1.646-3.264 2.314A11340.43 11340.43 0 0 1 89.53 75.336c-9.6 5.561-19.186 11.144-28.781 16.713a17046.45 17046.45 0 0 0-21.111 12.274c-4.779 2.784-9.57 5.55-14.341 8.35-.72.423-1.528.583-2.279.905-7.273 0-14.547-.007-21.819.014-.62.002-.864-.05-.846-.792.064-2.569.024-5.141.024-7.711.299-.628.849-.984 1.422-1.316 8.455-4.9 16.893-9.828 25.338-14.743 10.429-6.067 20.858-12.133 31.287-18.202 11.867-6.906 23.731-13.819 35.603-20.72 6.057-3.521 12.1-7.065 18.171-10.562.412-.238.825-.639 1.38-.304z"/><path fill="gray" d="M113.578 65.467c0 15.785-.005 31.57.019 47.356.001.646-.127.773-.773.772-27.356-.021-54.714-.018-82.07-.018-.219-.717.433-.85.807-1.073 2.022-1.207 4.068-2.375 6.106-3.557 5.218-3.026 10.429-6.062 15.646-9.087 7.363-4.27 14.718-8.555 22.084-12.821 5.871-3.4 11.729-6.823 17.594-10.234 6.408-3.727 12.813-7.458 19.238-11.157.397-.228.827-.684 1.349-.181z"/><path fill="#FFF" d="M113.578 25.658v12.075c-.29.674-.857 1.027-1.468 1.385-8.153 4.789-16.341 9.519-24.513 14.277a26066.901 26066.901 0 0 1-29.001 16.872c-12.089 7.018-24.16 14.066-36.248 21.085a7565.292 7565.292 0 0 0-20.603 12.002c-.423.248-.835.627-1.369.224V91.503c.214-.548.601-.907 1.115-1.208 7.106-4.154 14.229-8.28 21.342-12.422 12.626-7.352 25.26-14.69 37.883-22.045 8.388-4.887 16.776-9.772 25.169-14.65 8.801-5.116 17.589-10.253 26.402-15.348.404-.233.803-.552 1.291-.172z"/><path fill="#010101" d="M113.578 65.467c-2.808 1.606-5.625 3.197-8.422 4.822-24.406 14.175-48.808 28.356-73.211 42.537-.406.236-.796.501-1.192.752h-7.735c.142-.364.515-.428.799-.593 29.638-17.229 59.277-34.454 88.921-51.673.263-.153.493-.402.841-.372l-.001 4.527zm0-39.809c-5.623 3.259-11.251 6.511-16.869 9.779C64.84 53.979 32.974 72.526 1.105 91.071c-.244.142-.485.289-.729.433v-3.207c.379.013.634-.255.924-.424 37.12-21.596 74.237-43.198 111.357-64.794.292-.17.553-.423.921-.439v3.018zM.377 103.579c11.187-6.501 22.375-12.999 33.559-19.505 26.549-15.445 53.096-30.894 79.643-46.341v1.509c-7.839 4.574-15.675 9.155-23.519 13.721-29.614 17.241-59.23 34.476-88.845 51.711-.269.156-.559.276-.838.414v-1.509zm27.127-70.94c2.828.052 4.916 1.536 6.716 3.526 1.369 1.515 2.644 3.115 4.03 4.612 1.638 1.768 1.783 1.721 2.765-.453 2.619-5.806 4.798-11.799 7.473-17.582 2.296-4.964 4.768-9.831 8.025-14.252 1.176-1.596 2.447-3.116 3.992-4.373.574-.467 1.244-1.104 2.012-.626.668.416.427 1.227.344 1.915-.193 1.613-.815 3.089-1.455 4.554-3.707 8.48-7.422 16.956-10.526 25.685-2.013 5.661-3.648 11.407-4.475 17.373-.188 1.363-.571 2.704-1.347 3.885-.78 1.189-1.771 1.493-3.087.961-.949-.384-1.769-.991-2.479-1.69-4.48-4.414-9.38-8.359-13.997-12.619-1.039-.958-1.97-2.032-2.626-3.307-1.819-3.535.67-7.617 4.635-7.609z"/></g></svg>